<?xml version="1.0" encoding="UTF-8" standalone="no"?>
<!DOCTYPE svg PUBLIC "-//W3C//DTD SVG 1.1//EN"
 "http://www.w3.org/Graphics/SVG/1.1/DTD/svg11.dtd">
<!-- Generated by graphviz version 9.0.0 (20230911.1827)
 -->
<!-- Title: classes Pages: 1 -->
<svg width="1991pt" height="456pt"
 viewBox="0.00 0.00 1991.12 456.25" xmlns="http://www.w3.org/2000/svg" xmlns:xlink="http://www.w3.org/1999/xlink">
<g id="graph0" class="graph" transform="scale(1 1) rotate(0) translate(4 452.25)">
<title>classes</title>
<polygon fill="white" stroke="none" points="-4,4 -4,-452.25 1987.12,-452.25 1987.12,4 -4,4"/>
<!-- CVD Dash.src.gui.components.chart.Chart -->
<g id="node1" class="node">
<title>CVD Dash.src.gui.components.chart.Chart</title>
<polygon fill="none" stroke="black" points="0,-0.5 0,-245 287.5,-245 287.5,-0.5 0,-0.5"/>
<text text-anchor="start" x="128.38" y="-227.7" font-family="Times New Roman,serif" font-size="14.00">Chart</text>
<polyline fill="none" stroke="black" points="0,-221.25 287.5,-221.25"/>
<text text-anchor="start" x="45.5" y="-203.95" font-family="Times New Roman,serif" font-size="14.00">data</text>
<text text-anchor="start" x="45.5" y="-188.2" font-family="Times New Roman,serif" font-size="14.00">emitter</text>
<text text-anchor="start" x="45.5" y="-172.45" font-family="Times New Roman,serif" font-size="14.00">last_candle_timestamp : NoneType</text>
<text text-anchor="start" x="45.5" y="-156.7" font-family="Times New Roman,serif" font-size="14.00">ohlcv : dict</text>
<text text-anchor="start" x="45.5" y="-140.95" font-family="Times New Roman,serif" font-size="14.00">tag</text>
<text text-anchor="start" x="45.5" y="-125.2" font-family="Times New Roman,serif" font-size="14.00">task_manager</text>
<text text-anchor="start" x="45.5" y="-109.45" font-family="Times New Roman,serif" font-size="14.00">timeframe : int</text>
<polyline fill="none" stroke="black" points="0,-103 287.5,-103"/>
<text text-anchor="start" x="8" y="-85.7" font-family="Times New Roman,serif" font-size="14.00">async_task()</text>
<text text-anchor="start" x="8" y="-69.95" font-family="Times New Roman,serif" font-size="14.00">on_new_trade(trade_data)</text>
<text text-anchor="start" x="8" y="-54.2" font-family="Times New Roman,serif" font-size="14.00">stop_all_async_tasks()</text>
<text text-anchor="start" x="8" y="-38.45" font-family="Times New Roman,serif" font-size="14.00">stop_async_task(sender, app_data, user_data)</text>
<text text-anchor="start" x="8" y="-22.7" font-family="Times New Roman,serif" font-size="14.00">trigger_async_task(sender, app_data, user_data)</text>
<text text-anchor="start" x="8" y="-6.95" font-family="Times New Roman,serif" font-size="14.00">update_candle_chart()</text>
</g>
<!-- CVD Dash.src.analysis.market_aggregator.MarketAggregator -->
<g id="node2" class="node">
<title>CVD Dash.src.analysis.market_aggregator.MarketAggregator</title>
<polygon fill="none" stroke="black" points="306,-47.75 306,-197.75 623.5,-197.75 623.5,-47.75 306,-47.75"/>
<text text-anchor="start" x="414.12" y="-180.45" font-family="Times New Roman,serif" font-size="14.00">MarketAggregator</text>
<polyline fill="none" stroke="black" points="306,-174 623.5,-174"/>
<text text-anchor="start" x="390.5" y="-156.7" font-family="Times New Roman,serif" font-size="14.00">emitter</text>
<text text-anchor="start" x="390.5" y="-140.95" font-family="Times New Roman,serif" font-size="14.00">influx</text>
<text text-anchor="start" x="390.5" y="-125.2" font-family="Times New Roman,serif" font-size="14.00">order_size_categories : list</text>
<text text-anchor="start" x="390.5" y="-109.45" font-family="Times New Roman,serif" font-size="14.00">trade_stats : defaultdict</text>
<polyline fill="none" stroke="black" points="306,-103 623.5,-103"/>
<text text-anchor="start" x="314" y="-85.7" font-family="Times New Roman,serif" font-size="14.00">calc_trade_stats(exchange: str, trades: List[str]): None</text>
<text text-anchor="start" x="314" y="-69.95" font-family="Times New Roman,serif" font-size="14.00">get_order_size_category_(order_cost)</text>
<text text-anchor="start" x="314" y="-54.2" font-family="Times New Roman,serif" font-size="14.00">report_statistics()</text>
</g>
<!-- CVD Dash.src.gui.program.MenuBar -->
<g id="node3" class="node">
<title>CVD Dash.src.gui.program.MenuBar</title>
<polygon fill="none" stroke="black" points="641.5,-63.5 641.5,-182 728,-182 728,-63.5 641.5,-63.5"/>
<text text-anchor="start" x="659.25" y="-164.7" font-family="Times New Roman,serif" font-size="14.00">MenuBar</text>
<polyline fill="none" stroke="black" points="641.5,-158.25 728,-158.25"/>
<text text-anchor="start" x="649.5" y="-140.95" font-family="Times New Roman,serif" font-size="14.00">data</text>
<text text-anchor="start" x="649.5" y="-125.2" font-family="Times New Roman,serif" font-size="14.00">emitter</text>
<text text-anchor="start" x="649.5" y="-109.45" font-family="Times New Roman,serif" font-size="14.00">tag</text>
<text text-anchor="start" x="649.5" y="-93.7" font-family="Times New Roman,serif" font-size="14.00">task_manger</text>
<polyline fill="none" stroke="black" points="641.5,-87.25 728,-87.25"/>
<text text-anchor="start" x="682.88" y="-69.95" font-family="Times New Roman,serif" font-size="14.00"> </text>
</g>
<!-- CVD Dash.src.gui.program.Program -->
<g id="node4" class="node">
<title>CVD Dash.src.gui.program.Program</title>
<polygon fill="none" stroke="black" points="638.5,-297.75 638.5,-447.75 731,-447.75 731,-297.75 638.5,-297.75"/>
<text text-anchor="start" x="660.75" y="-430.45" font-family="Times New Roman,serif" font-size="14.00">Program</text>
<polyline fill="none" stroke="black" points="638.5,-424 731,-424"/>
<text text-anchor="start" x="646.5" y="-406.7" font-family="Times New Roman,serif" font-size="14.00">chart</text>
<text text-anchor="start" x="646.5" y="-390.95" font-family="Times New Roman,serif" font-size="14.00">data</text>
<text text-anchor="start" x="646.5" y="-375.2" font-family="Times New Roman,serif" font-size="14.00">emitter</text>
<text text-anchor="start" x="646.5" y="-359.45" font-family="Times New Roman,serif" font-size="14.00">menu_bar</text>
<text text-anchor="start" x="646.5" y="-343.7" font-family="Times New Roman,serif" font-size="14.00">tag</text>
<text text-anchor="start" x="646.5" y="-327.95" font-family="Times New Roman,serif" font-size="14.00">task_manager</text>
<polyline fill="none" stroke="black" points="638.5,-321.5 731,-321.5"/>
<text text-anchor="start" x="682.88" y="-304.2" font-family="Times New Roman,serif" font-size="14.00"> </text>
</g>
<!-- CVD Dash.src.gui.program.MenuBar&#45;&gt;CVD Dash.src.gui.program.Program -->
<g id="edge1" class="edge">
<title>CVD Dash.src.gui.program.MenuBar&#45;&gt;CVD Dash.src.gui.program.Program</title>
<path fill="none" stroke="black" d="M684.75,-182.21C684.75,-212.81 684.75,-250.89 684.75,-284.87"/>
<polygon fill="black" stroke="black" points="684.75,-284.76 688.75,-290.76 684.75,-296.76 680.75,-290.76 684.75,-284.76"/>
<text text-anchor="middle" x="712.5" y="-265.95" font-family="Times New Roman,serif" font-size="14.00" fill="green">menu_bar</text>
</g>
<!-- CVD Dash.src.gui.signals.SignalEmitter -->
<g id="node5" class="node">
<title>CVD Dash.src.gui.signals.SignalEmitter</title>
<polygon fill="none" stroke="black" points="746.12,-83.25 746.12,-162.25 1007.38,-162.25 1007.38,-83.25 746.12,-83.25"/>
<text text-anchor="start" x="840" y="-144.95" font-family="Times New Roman,serif" font-size="14.00">SignalEmitter</text>
<polyline fill="none" stroke="black" points="746.12,-138.5 1007.38,-138.5"/>
<polyline fill="none" stroke="black" points="746.12,-138.5 1007.38,-138.5"/>
<text text-anchor="start" x="754.12" y="-121.2" font-family="Times New Roman,serif" font-size="14.00">emit(signal: Signals)</text>
<text text-anchor="start" x="754.12" y="-105.45" font-family="Times New Roman,serif" font-size="14.00">register(signal: Signals, callback: Callable)</text>
<text text-anchor="start" x="754.12" y="-89.7" font-family="Times New Roman,serif" font-size="14.00">unregister(signal: Signals, callback: Callable)</text>
</g>
<!-- CVD Dash.src.gui.signals.Signals -->
<g id="node6" class="node">
<title>CVD Dash.src.gui.signals.Signals</title>
<polygon fill="none" stroke="black" points="1025.88,-87.12 1025.88,-158.38 1081.62,-158.38 1081.62,-87.12 1025.88,-87.12"/>
<text text-anchor="start" x="1033.88" y="-141.07" font-family="Times New Roman,serif" font-size="14.00">Signals</text>
<polyline fill="none" stroke="black" points="1025.88,-134.62 1081.62,-134.62"/>
<text text-anchor="start" x="1039.12" y="-117.33" font-family="Times New Roman,serif" font-size="14.00">name</text>
<polyline fill="none" stroke="black" points="1025.88,-110.88 1081.62,-110.88"/>
<text text-anchor="start" x="1051.88" y="-93.58" font-family="Times New Roman,serif" font-size="14.00"> </text>
</g>
<!-- CVD Dash.src.analysis.technical_analysis.TA -->
<g id="node7" class="node">
<title>CVD Dash.src.analysis.technical_analysis.TA</title>
<polygon fill="none" stroke="black" points="1100,-75.38 1100,-170.12 1585.5,-170.12 1585.5,-75.38 1100,-75.38"/>
<text text-anchor="start" x="1333.38" y="-152.82" font-family="Times New Roman,serif" font-size="14.00">TA</text>
<polyline fill="none" stroke="black" points="1100,-146.38 1585.5,-146.38"/>
<polyline fill="none" stroke="black" points="1100,-146.38 1585.5,-146.38"/>
<text text-anchor="start" x="1108" y="-129.07" font-family="Times New Roman,serif" font-size="14.00">ITrend(data, window)</text>
<text text-anchor="start" x="1108" y="-113.33" font-family="Times New Roman,serif" font-size="14.00">calculate_indicators(exchange_id: str, symbol: str, timeframe: str, df: dict, csv: bool)</text>
<text text-anchor="start" x="1108" y="-97.58" font-family="Times New Roman,serif" font-size="14.00">hull_moving_average(data, period, insert_next_to, column)</text>
<text text-anchor="start" x="1108" y="-81.83" font-family="Times New Roman,serif" font-size="14.00">weighted_moving_average(data, period, column)</text>
</g>
<!-- CVD Dash.src.gui.task_manager.TaskManager -->
<g id="node8" class="node">
<title>CVD Dash.src.gui.task_manager.TaskManager</title>
<polygon fill="none" stroke="black" points="1603.12,-63.5 1603.12,-182 1786.38,-182 1786.38,-63.5 1603.12,-63.5"/>
<text text-anchor="start" x="1656.88" y="-164.7" font-family="Times New Roman,serif" font-size="14.00">TaskManager</text>
<polyline fill="none" stroke="black" points="1603.12,-158.25 1786.38,-158.25"/>
<text text-anchor="start" x="1611.12" y="-140.95" font-family="Times New Roman,serif" font-size="14.00">loop : AbstractEventLoop</text>
<text text-anchor="start" x="1611.12" y="-125.2" font-family="Times New Roman,serif" font-size="14.00">tasks : Dict[str, asyncio.Task]</text>
<polyline fill="none" stroke="black" points="1603.12,-118.75 1786.38,-118.75"/>
<text text-anchor="start" x="1621.25" y="-101.45" font-family="Times New Roman,serif" font-size="14.00">start_task(name: str, coro)</text>
<text text-anchor="start" x="1621.25" y="-85.7" font-family="Times New Roman,serif" font-size="14.00">stop_all_tasks()</text>
<text text-anchor="start" x="1621.25" y="-69.95" font-family="Times New Roman,serif" font-size="14.00">stop_task(name: str)</text>
</g>
<!-- CVD Dash.src.gui.viewport.Viewport -->
<g id="node9" class="node">
<title>CVD Dash.src.gui.viewport.Viewport</title>
<polygon fill="none" stroke="black" points="1804.38,-47.75 1804.38,-197.75 1983.12,-197.75 1983.12,-47.75 1804.38,-47.75"/>
<text text-anchor="start" x="1867.88" y="-180.45" font-family="Times New Roman,serif" font-size="14.00">Viewport</text>
<polyline fill="none" stroke="black" points="1804.38,-174 1983.12,-174"/>
<text text-anchor="start" x="1812.38" y="-156.7" font-family="Times New Roman,serif" font-size="14.00">data</text>
<text text-anchor="start" x="1812.38" y="-140.95" font-family="Times New Roman,serif" font-size="14.00">emitter</text>
<text text-anchor="start" x="1812.38" y="-125.2" font-family="Times New Roman,serif" font-size="14.00">loop : AbstractEventLoop</text>
<text text-anchor="start" x="1812.38" y="-109.45" font-family="Times New Roman,serif" font-size="14.00">program : Optional[Program]</text>
<polyline fill="none" stroke="black" points="1804.38,-103 1983.12,-103"/>
<text text-anchor="start" x="1835.62" y="-85.7" font-family="Times New Roman,serif" font-size="14.00">initialize_program()</text>
<text text-anchor="start" x="1835.62" y="-69.95" font-family="Times New Roman,serif" font-size="14.00">setup_dpg()</text>
<text text-anchor="start" x="1835.62" y="-54.2" font-family="Times New Roman,serif" font-size="14.00">start_asyncio_loop()</text>
</g>
</g>
</svg>
