<?xml version="1.0" encoding="UTF-8" standalone="no"?>
<!DOCTYPE svg PUBLIC "-//W3C//DTD SVG 1.1//EN"
 "http://www.w3.org/Graphics/SVG/1.1/DTD/svg11.dtd">
<!-- Generated by graphviz version 9.0.0 (20230911.1827)
 -->
<!-- Title: classes Pages: 1 -->
<svg width="1979pt" height="456pt"
 viewBox="0.00 0.00 1978.75 456.25" xmlns="http://www.w3.org/2000/svg" xmlns:xlink="http://www.w3.org/1999/xlink">
<g id="graph0" class="graph" transform="scale(1 1) rotate(0) translate(4 452.25)">
<title>classes</title>
<polygon fill="white" stroke="none" points="-4,4 -4,-452.25 1974.75,-452.25 1974.75,4 -4,4"/>
<!-- CVD Dash.src.gui.components.chart.Chart -->
<g id="node1" class="node">
<title>CVD Dash.src.gui.components.chart.Chart</title>
<polygon fill="none" stroke="black" points="0,-0.5 0,-245 222.25,-245 222.25,-0.5 0,-0.5"/>
<text text-anchor="start" x="95.75" y="-227.7" font-family="Times New Roman,serif" font-size="14.00">Chart</text>
<polyline fill="none" stroke="black" points="0,-221.25 222.25,-221.25"/>
<text text-anchor="start" x="12.88" y="-203.95" font-family="Times New Roman,serif" font-size="14.00">data</text>
<text text-anchor="start" x="12.88" y="-188.2" font-family="Times New Roman,serif" font-size="14.00">emitter</text>
<text text-anchor="start" x="12.88" y="-172.45" font-family="Times New Roman,serif" font-size="14.00">last_candle_timestamp : NoneType</text>
<text text-anchor="start" x="12.88" y="-156.7" font-family="Times New Roman,serif" font-size="14.00">ohlcv : dict</text>
<text text-anchor="start" x="12.88" y="-140.95" font-family="Times New Roman,serif" font-size="14.00">tag</text>
<text text-anchor="start" x="12.88" y="-125.2" font-family="Times New Roman,serif" font-size="14.00">task_manager</text>
<text text-anchor="start" x="12.88" y="-109.45" font-family="Times New Roman,serif" font-size="14.00">timeframe : int</text>
<text text-anchor="start" x="12.88" y="-93.7" font-family="Times New Roman,serif" font-size="14.00">x : list</text>
<text text-anchor="start" x="12.88" y="-77.95" font-family="Times New Roman,serif" font-size="14.00">y : list</text>
<polyline fill="none" stroke="black" points="0,-71.5 222.25,-71.5"/>
<text text-anchor="start" x="8" y="-54.2" font-family="Times New Roman,serif" font-size="14.00">on_new_candles(all_candles)</text>
<text text-anchor="start" x="8" y="-38.45" font-family="Times New Roman,serif" font-size="14.00">on_new_trade(exchange, trade_data)</text>
<text text-anchor="start" x="8" y="-22.7" font-family="Times New Roman,serif" font-size="14.00">on_new_trade_(trade_data)</text>
<text text-anchor="start" x="8" y="-6.95" font-family="Times New Roman,serif" font-size="14.00">update_candle_chart()</text>
</g>
<!-- CVD Dash.src.gui.components.console.Console -->
<g id="node2" class="node">
<title>CVD Dash.src.gui.components.console.Console</title>
<polygon fill="none" stroke="black" points="240.62,-87.12 240.62,-158.38 325.62,-158.38 325.62,-87.12 240.62,-87.12"/>
<text text-anchor="start" x="259.88" y="-141.07" font-family="Times New Roman,serif" font-size="14.00">Console</text>
<polyline fill="none" stroke="black" points="240.62,-134.62 325.62,-134.62"/>
<text text-anchor="start" x="248.62" y="-117.33" font-family="Times New Roman,serif" font-size="14.00">log_ : deque</text>
<polyline fill="none" stroke="black" points="240.62,-110.88 325.62,-110.88"/>
<text text-anchor="start" x="281.25" y="-93.58" font-family="Times New Roman,serif" font-size="14.00"> </text>
</g>
<!-- CVD Dash.src.analysis.market_aggregator.MarketAggregator -->
<g id="node3" class="node">
<title>CVD Dash.src.analysis.market_aggregator.MarketAggregator</title>
<polygon fill="none" stroke="black" points="343.38,-47.75 343.38,-197.75 660.88,-197.75 660.88,-47.75 343.38,-47.75"/>
<text text-anchor="start" x="451.5" y="-180.45" font-family="Times New Roman,serif" font-size="14.00">MarketAggregator</text>
<polyline fill="none" stroke="black" points="343.38,-174 660.88,-174"/>
<text text-anchor="start" x="427.88" y="-156.7" font-family="Times New Roman,serif" font-size="14.00">emitter</text>
<text text-anchor="start" x="427.88" y="-140.95" font-family="Times New Roman,serif" font-size="14.00">influx</text>
<text text-anchor="start" x="427.88" y="-125.2" font-family="Times New Roman,serif" font-size="14.00">order_size_categories : list</text>
<text text-anchor="start" x="427.88" y="-109.45" font-family="Times New Roman,serif" font-size="14.00">trade_stats : defaultdict</text>
<polyline fill="none" stroke="black" points="343.38,-103 660.88,-103"/>
<text text-anchor="start" x="351.38" y="-85.7" font-family="Times New Roman,serif" font-size="14.00">calc_trade_stats(exchange: str, trades: List[str]): None</text>
<text text-anchor="start" x="351.38" y="-69.95" font-family="Times New Roman,serif" font-size="14.00">get_order_size_category_(order_cost)</text>
<text text-anchor="start" x="351.38" y="-54.2" font-family="Times New Roman,serif" font-size="14.00">report_statistics()</text>
</g>
<!-- CVD Dash.src.gui.program.MenuBar -->
<g id="node4" class="node">
<title>CVD Dash.src.gui.program.MenuBar</title>
<polygon fill="none" stroke="black" points="678.88,-63.5 678.88,-182 765.38,-182 765.38,-63.5 678.88,-63.5"/>
<text text-anchor="start" x="696.62" y="-164.7" font-family="Times New Roman,serif" font-size="14.00">MenuBar</text>
<polyline fill="none" stroke="black" points="678.88,-158.25 765.38,-158.25"/>
<text text-anchor="start" x="686.88" y="-140.95" font-family="Times New Roman,serif" font-size="14.00">data</text>
<text text-anchor="start" x="686.88" y="-125.2" font-family="Times New Roman,serif" font-size="14.00">emitter</text>
<text text-anchor="start" x="686.88" y="-109.45" font-family="Times New Roman,serif" font-size="14.00">tag</text>
<text text-anchor="start" x="686.88" y="-93.7" font-family="Times New Roman,serif" font-size="14.00">task_manger</text>
<polyline fill="none" stroke="black" points="678.88,-87.25 765.38,-87.25"/>
<text text-anchor="start" x="720.25" y="-69.95" font-family="Times New Roman,serif" font-size="14.00"> </text>
</g>
<!-- CVD Dash.src.gui.program.Program -->
<g id="node5" class="node">
<title>CVD Dash.src.gui.program.Program</title>
<polygon fill="none" stroke="black" points="675.88,-297.75 675.88,-447.75 768.38,-447.75 768.38,-297.75 675.88,-297.75"/>
<text text-anchor="start" x="698.12" y="-430.45" font-family="Times New Roman,serif" font-size="14.00">Program</text>
<polyline fill="none" stroke="black" points="675.88,-424 768.38,-424"/>
<text text-anchor="start" x="683.88" y="-406.7" font-family="Times New Roman,serif" font-size="14.00">chart</text>
<text text-anchor="start" x="683.88" y="-390.95" font-family="Times New Roman,serif" font-size="14.00">data</text>
<text text-anchor="start" x="683.88" y="-375.2" font-family="Times New Roman,serif" font-size="14.00">emitter</text>
<text text-anchor="start" x="683.88" y="-359.45" font-family="Times New Roman,serif" font-size="14.00">menu_bar</text>
<text text-anchor="start" x="683.88" y="-343.7" font-family="Times New Roman,serif" font-size="14.00">tag</text>
<text text-anchor="start" x="683.88" y="-327.95" font-family="Times New Roman,serif" font-size="14.00">task_manager</text>
<polyline fill="none" stroke="black" points="675.88,-321.5 768.38,-321.5"/>
<text text-anchor="start" x="695.88" y="-304.2" font-family="Times New Roman,serif" font-size="14.00">initialize()</text>
</g>
<!-- CVD Dash.src.gui.program.MenuBar&#45;&gt;CVD Dash.src.gui.program.Program -->
<g id="edge1" class="edge">
<title>CVD Dash.src.gui.program.MenuBar&#45;&gt;CVD Dash.src.gui.program.Program</title>
<path fill="none" stroke="black" d="M722.12,-182.21C722.12,-212.81 722.12,-250.89 722.12,-284.87"/>
<polygon fill="black" stroke="black" points="722.13,-284.76 726.13,-290.76 722.13,-296.76 718.13,-290.76 722.13,-284.76"/>
<text text-anchor="middle" x="749.88" y="-265.95" font-family="Times New Roman,serif" font-size="14.00" fill="green">menu_bar</text>
</g>
<!-- CVD Dash.src.gui.signals.SignalEmitter -->
<g id="node6" class="node">
<title>CVD Dash.src.gui.signals.SignalEmitter</title>
<polygon fill="none" stroke="black" points="783.5,-83.25 783.5,-162.25 1044.75,-162.25 1044.75,-83.25 783.5,-83.25"/>
<text text-anchor="start" x="877.38" y="-144.95" font-family="Times New Roman,serif" font-size="14.00">SignalEmitter</text>
<polyline fill="none" stroke="black" points="783.5,-138.5 1044.75,-138.5"/>
<polyline fill="none" stroke="black" points="783.5,-138.5 1044.75,-138.5"/>
<text text-anchor="start" x="791.5" y="-121.2" font-family="Times New Roman,serif" font-size="14.00">emit(signal: Signals)</text>
<text text-anchor="start" x="791.5" y="-105.45" font-family="Times New Roman,serif" font-size="14.00">register(signal: Signals, callback: Callable)</text>
<text text-anchor="start" x="791.5" y="-89.7" font-family="Times New Roman,serif" font-size="14.00">unregister(signal: Signals, callback: Callable)</text>
</g>
<!-- CVD Dash.src.gui.signals.Signals -->
<g id="node7" class="node">
<title>CVD Dash.src.gui.signals.Signals</title>
<polygon fill="none" stroke="black" points="1063.25,-87.12 1063.25,-158.38 1119,-158.38 1119,-87.12 1063.25,-87.12"/>
<text text-anchor="start" x="1071.25" y="-141.07" font-family="Times New Roman,serif" font-size="14.00">Signals</text>
<polyline fill="none" stroke="black" points="1063.25,-134.62 1119,-134.62"/>
<text text-anchor="start" x="1076.5" y="-117.33" font-family="Times New Roman,serif" font-size="14.00">name</text>
<polyline fill="none" stroke="black" points="1063.25,-110.88 1119,-110.88"/>
<text text-anchor="start" x="1089.25" y="-93.58" font-family="Times New Roman,serif" font-size="14.00"> </text>
</g>
<!-- CVD Dash.src.analysis.technical_analysis.TA -->
<g id="node8" class="node">
<title>CVD Dash.src.analysis.technical_analysis.TA</title>
<polygon fill="none" stroke="black" points="1137.38,-75.38 1137.38,-170.12 1622.88,-170.12 1622.88,-75.38 1137.38,-75.38"/>
<text text-anchor="start" x="1370.75" y="-152.82" font-family="Times New Roman,serif" font-size="14.00">TA</text>
<polyline fill="none" stroke="black" points="1137.38,-146.38 1622.88,-146.38"/>
<polyline fill="none" stroke="black" points="1137.38,-146.38 1622.88,-146.38"/>
<text text-anchor="start" x="1145.38" y="-129.07" font-family="Times New Roman,serif" font-size="14.00">ITrend(data, window)</text>
<text text-anchor="start" x="1145.38" y="-113.33" font-family="Times New Roman,serif" font-size="14.00">calculate_indicators(exchange_id: str, symbol: str, timeframe: str, df: dict, csv: bool)</text>
<text text-anchor="start" x="1145.38" y="-97.58" font-family="Times New Roman,serif" font-size="14.00">hull_moving_average(data, period, insert_next_to, column)</text>
<text text-anchor="start" x="1145.38" y="-81.83" font-family="Times New Roman,serif" font-size="14.00">weighted_moving_average(data, period, column)</text>
</g>
<!-- CVD Dash.src.gui.task_manager.TaskManager -->
<g id="node9" class="node">
<title>CVD Dash.src.gui.task_manager.TaskManager</title>
<polygon fill="none" stroke="black" points="1640.88,-39.88 1640.88,-205.62 1829.38,-205.62 1829.38,-39.88 1640.88,-39.88"/>
<text text-anchor="start" x="1697.25" y="-188.32" font-family="Times New Roman,serif" font-size="14.00">TaskManager</text>
<polyline fill="none" stroke="black" points="1640.88,-181.88 1829.38,-181.88"/>
<text text-anchor="start" x="1692.75" y="-164.57" font-family="Times New Roman,serif" font-size="14.00">loop</text>
<text text-anchor="start" x="1692.75" y="-148.82" font-family="Times New Roman,serif" font-size="14.00">tasks : dict</text>
<text text-anchor="start" x="1692.75" y="-133.07" font-family="Times New Roman,serif" font-size="14.00">thread : Thread</text>
<polyline fill="none" stroke="black" points="1640.88,-126.62 1829.38,-126.62"/>
<text text-anchor="start" x="1648.88" y="-109.33" font-family="Times New Roman,serif" font-size="14.00">run_loop()</text>
<text text-anchor="start" x="1648.88" y="-93.58" font-family="Times New Roman,serif" font-size="14.00">run_task_until_complete(coro)</text>
<text text-anchor="start" x="1648.88" y="-77.83" font-family="Times New Roman,serif" font-size="14.00">start_task(name: str, coro)</text>
<text text-anchor="start" x="1648.88" y="-62.08" font-family="Times New Roman,serif" font-size="14.00">stop_all_tasks()</text>
<text text-anchor="start" x="1648.88" y="-46.33" font-family="Times New Roman,serif" font-size="14.00">stop_task(name: str)</text>
</g>
<!-- CVD Dash.src.gui.viewport.Viewport -->
<g id="node10" class="node">
<title>CVD Dash.src.gui.viewport.Viewport</title>
<polygon fill="none" stroke="black" points="1847.5,-55.62 1847.5,-189.88 1970.75,-189.88 1970.75,-55.62 1847.5,-55.62"/>
<text text-anchor="start" x="1883.25" y="-172.57" font-family="Times New Roman,serif" font-size="14.00">Viewport</text>
<polyline fill="none" stroke="black" points="1847.5,-166.12 1970.75,-166.12"/>
<text text-anchor="start" x="1870.88" y="-148.82" font-family="Times New Roman,serif" font-size="14.00">data</text>
<text text-anchor="start" x="1870.88" y="-133.07" font-family="Times New Roman,serif" font-size="14.00">emitter</text>
<text text-anchor="start" x="1870.88" y="-117.33" font-family="Times New Roman,serif" font-size="14.00">program</text>
<text text-anchor="start" x="1870.88" y="-101.58" font-family="Times New Roman,serif" font-size="14.00">task_manager</text>
<polyline fill="none" stroke="black" points="1847.5,-95.12 1970.75,-95.12"/>
<text text-anchor="start" x="1855.5" y="-77.83" font-family="Times New Roman,serif" font-size="14.00">initialize_program()</text>
<text text-anchor="start" x="1855.5" y="-62.08" font-family="Times New Roman,serif" font-size="14.00">setup_dpg()</text>
</g>
</g>
</svg>
