<?xml version="1.0" encoding="UTF-8" standalone="no"?>
<!DOCTYPE svg PUBLIC "-//W3C//DTD SVG 1.1//EN"
 "http://www.w3.org/Graphics/SVG/1.1/DTD/svg11.dtd">
<!-- Generated by graphviz version 9.0.0 (20230911.1827)
 -->
<!-- Title: classes Pages: 1 -->
<svg width="1918pt" height="409pt"
 viewBox="0.00 0.00 1917.75 409.00" xmlns="http://www.w3.org/2000/svg" xmlns:xlink="http://www.w3.org/1999/xlink">
<g id="graph0" class="graph" transform="scale(1 1) rotate(0) translate(4 405)">
<title>classes</title>
<polygon fill="white" stroke="none" points="-4,4 -4,-405 1913.75,-405 1913.75,4 -4,4"/>
<!-- CVD Dash.src.gui.components.chart.Chart -->
<g id="node1" class="node">
<title>CVD Dash.src.gui.components.chart.Chart</title>
<polygon fill="none" stroke="black" points="0,-24.12 0,-158.38 179.5,-158.38 179.5,-24.12 0,-24.12"/>
<text text-anchor="start" x="74.38" y="-141.07" font-family="Times New Roman,serif" font-size="14.00">Chart</text>
<polyline fill="none" stroke="black" points="0,-134.62 179.5,-134.62"/>
<text text-anchor="start" x="16.62" y="-117.33" font-family="Times New Roman,serif" font-size="14.00">data</text>
<text text-anchor="start" x="16.62" y="-101.58" font-family="Times New Roman,serif" font-size="14.00">emitter</text>
<text text-anchor="start" x="16.62" y="-85.83" font-family="Times New Roman,serif" font-size="14.00">initial_ratio : tuple</text>
<text text-anchor="start" x="16.62" y="-70.08" font-family="Times New Roman,serif" font-size="14.00">loop : AbstractEventLoop</text>
<text text-anchor="start" x="16.62" y="-54.33" font-family="Times New Roman,serif" font-size="14.00">tag</text>
<polyline fill="none" stroke="black" points="0,-47.88 179.5,-47.88"/>
<text text-anchor="start" x="8" y="-30.57" font-family="Times New Roman,serif" font-size="14.00">resize_window(width, height)</text>
</g>
<!-- CVD Dash.src.analysis.market_aggregator.MarketAggregator -->
<g id="node2" class="node">
<title>CVD Dash.src.analysis.market_aggregator.MarketAggregator</title>
<polygon fill="none" stroke="black" points="198,-16.25 198,-166.25 515.5,-166.25 515.5,-16.25 198,-16.25"/>
<text text-anchor="start" x="306.12" y="-148.95" font-family="Times New Roman,serif" font-size="14.00">MarketAggregator</text>
<polyline fill="none" stroke="black" points="198,-142.5 515.5,-142.5"/>
<text text-anchor="start" x="282.5" y="-125.2" font-family="Times New Roman,serif" font-size="14.00">emitter</text>
<text text-anchor="start" x="282.5" y="-109.45" font-family="Times New Roman,serif" font-size="14.00">influx</text>
<text text-anchor="start" x="282.5" y="-93.7" font-family="Times New Roman,serif" font-size="14.00">order_size_categories : list</text>
<text text-anchor="start" x="282.5" y="-77.95" font-family="Times New Roman,serif" font-size="14.00">trade_stats : defaultdict</text>
<polyline fill="none" stroke="black" points="198,-71.5 515.5,-71.5"/>
<text text-anchor="start" x="206" y="-54.2" font-family="Times New Roman,serif" font-size="14.00">calc_trade_stats(exchange: str, trades: List[str]): None</text>
<text text-anchor="start" x="206" y="-38.45" font-family="Times New Roman,serif" font-size="14.00">get_order_size_category_(order_cost)</text>
<text text-anchor="start" x="206" y="-22.7" font-family="Times New Roman,serif" font-size="14.00">report_statistics()</text>
</g>
<!-- CVD Dash.src.gui.program.MenuBar -->
<g id="node3" class="node">
<title>CVD Dash.src.gui.program.MenuBar</title>
<polygon fill="none" stroke="black" points="533.62,-32 533.62,-150.5 695.88,-150.5 695.88,-32 533.62,-32"/>
<text text-anchor="start" x="589.25" y="-133.2" font-family="Times New Roman,serif" font-size="14.00">MenuBar</text>
<polyline fill="none" stroke="black" points="533.62,-126.75 695.88,-126.75"/>
<text text-anchor="start" x="541.62" y="-109.45" font-family="Times New Roman,serif" font-size="14.00">data</text>
<text text-anchor="start" x="541.62" y="-93.7" font-family="Times New Roman,serif" font-size="14.00">emitter</text>
<text text-anchor="start" x="541.62" y="-77.95" font-family="Times New Roman,serif" font-size="14.00">loop : AbstractEventLoop</text>
<text text-anchor="start" x="541.62" y="-62.2" font-family="Times New Roman,serif" font-size="14.00">tag</text>
<polyline fill="none" stroke="black" points="533.62,-55.75 695.88,-55.75"/>
<text text-anchor="start" x="612.88" y="-38.45" font-family="Times New Roman,serif" font-size="14.00"> </text>
</g>
<!-- CVD Dash.src.gui.program.Program -->
<g id="node4" class="node">
<title>CVD Dash.src.gui.program.Program</title>
<polygon fill="none" stroke="black" points="471,-234.75 471,-400.5 758.5,-400.5 758.5,-234.75 471,-234.75"/>
<text text-anchor="start" x="590.75" y="-383.2" font-family="Times New Roman,serif" font-size="14.00">Program</text>
<polyline fill="none" stroke="black" points="471,-376.75 758.5,-376.75"/>
<text text-anchor="start" x="541.62" y="-359.45" font-family="Times New Roman,serif" font-size="14.00">chart</text>
<text text-anchor="start" x="541.62" y="-343.7" font-family="Times New Roman,serif" font-size="14.00">data</text>
<text text-anchor="start" x="541.62" y="-327.95" font-family="Times New Roman,serif" font-size="14.00">emitter</text>
<text text-anchor="start" x="541.62" y="-312.2" font-family="Times New Roman,serif" font-size="14.00">loop : AbstractEventLoop</text>
<text text-anchor="start" x="541.62" y="-296.45" font-family="Times New Roman,serif" font-size="14.00">menu_bar</text>
<text text-anchor="start" x="541.62" y="-280.7" font-family="Times New Roman,serif" font-size="14.00">tag</text>
<polyline fill="none" stroke="black" points="471,-274.25 758.5,-274.25"/>
<text text-anchor="start" x="479" y="-256.95" font-family="Times New Roman,serif" font-size="14.00">async_task()</text>
<text text-anchor="start" x="479" y="-241.2" font-family="Times New Roman,serif" font-size="14.00">trigger_async_task(sender, app_data, user_data)</text>
</g>
<!-- CVD Dash.src.gui.program.MenuBar&#45;&gt;CVD Dash.src.gui.program.Program -->
<g id="edge1" class="edge">
<title>CVD Dash.src.gui.program.MenuBar&#45;&gt;CVD Dash.src.gui.program.Program</title>
<path fill="none" stroke="black" d="M614.75,-150.91C614.75,-172.48 614.75,-197.5 614.75,-221.46"/>
<polygon fill="black" stroke="black" points="614.75,-221.35 618.75,-227.35 614.75,-233.35 610.75,-227.35 614.75,-221.35"/>
<text text-anchor="middle" x="642.5" y="-202.95" font-family="Times New Roman,serif" font-size="14.00" fill="green">menu_bar</text>
</g>
<!-- CVD Dash.src.gui.signals.SignalEmitter -->
<g id="node5" class="node">
<title>CVD Dash.src.gui.signals.SignalEmitter</title>
<polygon fill="none" stroke="black" points="714.12,-51.75 714.12,-130.75 975.38,-130.75 975.38,-51.75 714.12,-51.75"/>
<text text-anchor="start" x="808" y="-113.45" font-family="Times New Roman,serif" font-size="14.00">SignalEmitter</text>
<polyline fill="none" stroke="black" points="714.12,-107 975.38,-107"/>
<polyline fill="none" stroke="black" points="714.12,-107 975.38,-107"/>
<text text-anchor="start" x="722.12" y="-89.7" font-family="Times New Roman,serif" font-size="14.00">emit(signal: Signals)</text>
<text text-anchor="start" x="722.12" y="-73.95" font-family="Times New Roman,serif" font-size="14.00">register(signal: Signals, callback: Callable)</text>
<text text-anchor="start" x="722.12" y="-58.2" font-family="Times New Roman,serif" font-size="14.00">unregister(signal: Signals, callback: Callable)</text>
</g>
<!-- CVD Dash.src.gui.signals.Signals -->
<g id="node6" class="node">
<title>CVD Dash.src.gui.signals.Signals</title>
<polygon fill="none" stroke="black" points="993.88,-55.62 993.88,-126.88 1049.62,-126.88 1049.62,-55.62 993.88,-55.62"/>
<text text-anchor="start" x="1001.88" y="-109.58" font-family="Times New Roman,serif" font-size="14.00">Signals</text>
<polyline fill="none" stroke="black" points="993.88,-103.12 1049.62,-103.12"/>
<text text-anchor="start" x="1007.12" y="-85.83" font-family="Times New Roman,serif" font-size="14.00">name</text>
<polyline fill="none" stroke="black" points="993.88,-79.38 1049.62,-79.38"/>
<text text-anchor="start" x="1019.88" y="-62.08" font-family="Times New Roman,serif" font-size="14.00"> </text>
</g>
<!-- CVD Dash.src.analysis.technical_analysis.TA -->
<g id="node7" class="node">
<title>CVD Dash.src.analysis.technical_analysis.TA</title>
<polygon fill="none" stroke="black" points="1068,-43.88 1068,-138.62 1553.5,-138.62 1553.5,-43.88 1068,-43.88"/>
<text text-anchor="start" x="1301.38" y="-121.33" font-family="Times New Roman,serif" font-size="14.00">TA</text>
<polyline fill="none" stroke="black" points="1068,-114.88 1553.5,-114.88"/>
<polyline fill="none" stroke="black" points="1068,-114.88 1553.5,-114.88"/>
<text text-anchor="start" x="1076" y="-97.58" font-family="Times New Roman,serif" font-size="14.00">ITrend(data, window)</text>
<text text-anchor="start" x="1076" y="-81.83" font-family="Times New Roman,serif" font-size="14.00">calculate_indicators(exchange_id: str, symbol: str, timeframe: str, df: dict, csv: bool)</text>
<text text-anchor="start" x="1076" y="-66.08" font-family="Times New Roman,serif" font-size="14.00">hull_moving_average(data, period, insert_next_to, column)</text>
<text text-anchor="start" x="1076" y="-50.33" font-family="Times New Roman,serif" font-size="14.00">weighted_moving_average(data, period, column)</text>
</g>
<!-- CVD Dash.src.gui.viewport.Viewport -->
<g id="node8" class="node">
<title>CVD Dash.src.gui.viewport.Viewport</title>
<polygon fill="none" stroke="black" points="1571.38,-0.5 1571.38,-182 1750.12,-182 1750.12,-0.5 1571.38,-0.5"/>
<text text-anchor="start" x="1634.88" y="-164.7" font-family="Times New Roman,serif" font-size="14.00">Viewport</text>
<polyline fill="none" stroke="black" points="1571.38,-158.25 1750.12,-158.25"/>
<text text-anchor="start" x="1579.38" y="-140.95" font-family="Times New Roman,serif" font-size="14.00">data</text>
<text text-anchor="start" x="1579.38" y="-125.2" font-family="Times New Roman,serif" font-size="14.00">emitter</text>
<text text-anchor="start" x="1579.38" y="-109.45" font-family="Times New Roman,serif" font-size="14.00">loop : AbstractEventLoop</text>
<text text-anchor="start" x="1579.38" y="-93.7" font-family="Times New Roman,serif" font-size="14.00">program : Optional[Program]</text>
<polyline fill="none" stroke="black" points="1571.38,-87.25 1750.12,-87.25"/>
<text text-anchor="start" x="1579.75" y="-69.95" font-family="Times New Roman,serif" font-size="14.00">initialize_program()</text>
<text text-anchor="start" x="1579.75" y="-54.2" font-family="Times New Roman,serif" font-size="14.00">print_viewport(width, height)</text>
<text text-anchor="start" x="1579.75" y="-38.45" font-family="Times New Roman,serif" font-size="14.00">run()</text>
<text text-anchor="start" x="1579.75" y="-22.7" font-family="Times New Roman,serif" font-size="14.00">setup_dpg()</text>
<text text-anchor="start" x="1579.75" y="-6.95" font-family="Times New Roman,serif" font-size="14.00">start_asyncio_loop()</text>
</g>
<!-- CVD Dash.src.gui.components.test_window.Window -->
<g id="node9" class="node">
<title>CVD Dash.src.gui.components.test_window.Window</title>
<polygon fill="none" stroke="black" points="1767.75,-55.62 1767.75,-126.88 1909.75,-126.88 1909.75,-55.62 1767.75,-55.62"/>
<text text-anchor="start" x="1814.75" y="-109.58" font-family="Times New Roman,serif" font-size="14.00">Window</text>
<polyline fill="none" stroke="black" points="1767.75,-103.12 1909.75,-103.12"/>
<text text-anchor="start" x="1820" y="-85.83" font-family="Times New Roman,serif" font-size="14.00">emitter</text>
<polyline fill="none" stroke="black" points="1767.75,-79.38 1909.75,-79.38"/>
<text text-anchor="start" x="1775.75" y="-62.08" font-family="Times New Roman,serif" font-size="14.00">update_text(exchange)</text>
</g>
</g>
</svg>
