<?xml version="1.0" encoding="UTF-8" standalone="no"?>
<!DOCTYPE svg PUBLIC "-//W3C//DTD SVG 1.1//EN"
 "http://www.w3.org/Graphics/SVG/1.1/DTD/svg11.dtd">
<!-- Generated by graphviz version 9.0.0 (20230911.1827)
 -->
<!-- Title: classes Pages: 1 -->
<svg width="2018pt" height="1901pt"
 viewBox="0.00 0.00 2017.50 1901.00" xmlns="http://www.w3.org/2000/svg" xmlns:xlink="http://www.w3.org/1999/xlink">
<g id="graph0" class="graph" transform="scale(1 1) rotate(0) translate(4 1897)">
<title>classes</title>
<polygon fill="white" stroke="none" points="-4,4 -4,-1897 2013.5,-1897 2013.5,4 -4,4"/>
<!-- trade_suite.gui.components.chart.Chart -->
<g id="node1" class="node">
<title>trade_suite.gui.components.chart.Chart</title>
<polygon fill="none" stroke="black" points="556.12,-768.25 556.12,-1366.25 893.88,-1366.25 893.88,-768.25 556.12,-768.25"/>
<text text-anchor="start" x="709.62" y="-1348.95" font-family="Times New Roman,serif" font-size="14.00">Chart</text>
<polyline fill="none" stroke="black" points="556.12,-1342.5 893.88,-1342.5"/>
<text text-anchor="start" x="636.88" y="-1325.2" font-family="Times New Roman,serif" font-size="14.00">active_symbol</text>
<text text-anchor="start" x="636.88" y="-1309.45" font-family="Times New Roman,serif" font-size="14.00">candle_factory : CandleFactory</text>
<text text-anchor="start" x="636.88" y="-1293.7" font-family="Times New Roman,serif" font-size="14.00">candle_series</text>
<text text-anchor="start" x="636.88" y="-1277.95" font-family="Times New Roman,serif" font-size="14.00">candle_series_xaxis</text>
<text text-anchor="start" x="636.88" y="-1262.2" font-family="Times New Roman,serif" font-size="14.00">candle_series_yaxis</text>
<text text-anchor="start" x="636.88" y="-1246.45" font-family="Times New Roman,serif" font-size="14.00">candlestick_plot</text>
<text text-anchor="start" x="636.88" y="-1230.7" font-family="Times New Roman,serif" font-size="14.00">config_manager</text>
<text text-anchor="start" x="636.88" y="-1214.95" font-family="Times New Roman,serif" font-size="14.00">data : Data</text>
<text text-anchor="start" x="636.88" y="-1199.2" font-family="Times New Roman,serif" font-size="14.00">emitter</text>
<text text-anchor="start" x="636.88" y="-1183.45" font-family="Times New Roman,serif" font-size="14.00">exchange</text>
<text text-anchor="start" x="636.88" y="-1167.7" font-family="Times New Roman,serif" font-size="14.00">exchange_settings</text>
<text text-anchor="start" x="636.88" y="-1151.95" font-family="Times New Roman,serif" font-size="14.00">indicators</text>
<text text-anchor="start" x="636.88" y="-1136.2" font-family="Times New Roman,serif" font-size="14.00">ohlcv : DataFrame</text>
<text text-anchor="start" x="636.88" y="-1120.45" font-family="Times New Roman,serif" font-size="14.00">orderbook</text>
<text text-anchor="start" x="636.88" y="-1104.7" font-family="Times New Roman,serif" font-size="14.00">parent</text>
<text text-anchor="start" x="636.88" y="-1088.95" font-family="Times New Roman,serif" font-size="14.00">tab</text>
<text text-anchor="start" x="636.88" y="-1073.2" font-family="Times New Roman,serif" font-size="14.00">tag</text>
<text text-anchor="start" x="636.88" y="-1057.45" font-family="Times New Roman,serif" font-size="14.00">task_manager</text>
<text text-anchor="start" x="636.88" y="-1041.7" font-family="Times New Roman,serif" font-size="14.00">timeframe_str</text>
<text text-anchor="start" x="636.88" y="-1025.95" font-family="Times New Roman,serif" font-size="14.00">trading</text>
<text text-anchor="start" x="636.88" y="-1010.2" font-family="Times New Roman,serif" font-size="14.00">volume_series</text>
<text text-anchor="start" x="636.88" y="-994.45" font-family="Times New Roman,serif" font-size="14.00">volume_series_xaxis</text>
<text text-anchor="start" x="636.88" y="-978.7" font-family="Times New Roman,serif" font-size="14.00">volume_series_yaxis</text>
<polyline fill="none" stroke="black" points="556.12,-972.25 893.88,-972.25"/>
<text text-anchor="start" x="564.12" y="-955.95" font-family="Times New Roman,serif" font-size="14.00">on_new_candles(exchange, candles)</text>
<text text-anchor="start" x="564.12" y="-941.95" font-family="Times New Roman,serif" font-style="italic" font-size="14.00">on_new_trade</text>
<text text-anchor="start" x="646.62" y="-941.95" font-family="Times New Roman,serif" font-size="14.00">(exchange, trade_data)</text>
<text text-anchor="start" x="564.12" y="-927.95" font-family="Times New Roman,serif" font-size="14.00">on_symbol_change(exchange, tab, new_symbol: str)</text>
<text text-anchor="start" x="564.12" y="-913.95" font-family="Times New Roman,serif" font-size="14.00">on_timeframe_change(exchange, tab, new_timeframe: str)</text>
<text text-anchor="start" x="564.12" y="-899.95" font-family="Times New Roman,serif" font-style="italic" font-size="14.00">on_trade_stat_update</text>
<text text-anchor="start" x="690.88" y="-899.95" font-family="Times New Roman,serif" font-size="14.00">(symbol, stats)</text>
<text text-anchor="start" x="564.12" y="-885.95" font-family="Times New Roman,serif" font-size="14.00">on_updated_candles(exchange, candles)</text>
<text text-anchor="start" x="564.12" y="-871.95" font-family="Times New Roman,serif" font-size="14.00">on_viewport_resize(width, height)</text>
<text text-anchor="start" x="564.12" y="-857.95" font-family="Times New Roman,serif" font-size="14.00">register_event_listeners()</text>
<text text-anchor="start" x="564.12" y="-843.95" font-family="Times New Roman,serif" font-size="14.00">setup_candlestick_chart()</text>
<text text-anchor="start" x="564.12" y="-829.95" font-family="Times New Roman,serif" font-size="14.00">setup_exchange_menu()</text>
<text text-anchor="start" x="564.12" y="-815.95" font-family="Times New Roman,serif" font-size="14.00">setup_menus()</text>
<text text-anchor="start" x="564.12" y="-801.95" font-family="Times New Roman,serif" font-size="14.00">setup_settings_menu()</text>
<text text-anchor="start" x="564.12" y="-787.95" font-family="Times New Roman,serif" font-size="14.00">setup_ui_elements()</text>
<text text-anchor="start" x="564.12" y="-773.95" font-family="Times New Roman,serif" font-size="14.00">update_candle_chart()</text>
</g>
<!-- trade_suite.gui.program.Program -->
<g id="node7" class="node">
<title>trade_suite.gui.program.Program</title>
<polygon fill="none" stroke="black" points="1259.38,-1419 1259.38,-1689.75 1466.62,-1689.75 1466.62,-1419 1259.38,-1419"/>
<text text-anchor="start" x="1339" y="-1672.45" font-family="Times New Roman,serif" font-size="14.00">Program</text>
<polyline fill="none" stroke="black" points="1259.38,-1666 1466.62,-1666"/>
<text text-anchor="start" x="1287.62" y="-1648.7" font-family="Times New Roman,serif" font-size="14.00">chart</text>
<text text-anchor="start" x="1287.62" y="-1632.95" font-family="Times New Roman,serif" font-size="14.00">config_manager</text>
<text text-anchor="start" x="1287.62" y="-1617.2" font-family="Times New Roman,serif" font-size="14.00">data : Data</text>
<text text-anchor="start" x="1287.62" y="-1601.45" font-family="Times New Roman,serif" font-size="14.00">emitter</text>
<text text-anchor="start" x="1287.62" y="-1585.7" font-family="Times New Roman,serif" font-size="14.00">exchange_settings</text>
<text text-anchor="start" x="1287.62" y="-1569.95" font-family="Times New Roman,serif" font-size="14.00">last_exchange</text>
<text text-anchor="start" x="1287.62" y="-1554.2" font-family="Times New Roman,serif" font-size="14.00">last_symbol : NoneType</text>
<text text-anchor="start" x="1287.62" y="-1538.45" font-family="Times New Roman,serif" font-size="14.00">last_timeframe : NoneType</text>
<text text-anchor="start" x="1287.62" y="-1522.7" font-family="Times New Roman,serif" font-size="14.00">menu_bar</text>
<text text-anchor="start" x="1287.62" y="-1506.95" font-family="Times New Roman,serif" font-size="14.00">primary_window_tag : str</text>
<text text-anchor="start" x="1287.62" y="-1491.2" font-family="Times New Roman,serif" font-size="14.00">tab_bar</text>
<text text-anchor="start" x="1287.62" y="-1475.45" font-family="Times New Roman,serif" font-size="14.00">task_manager</text>
<polyline fill="none" stroke="black" points="1259.38,-1469 1466.62,-1469"/>
<text text-anchor="start" x="1267.38" y="-1452.7" font-family="Times New Roman,serif" font-size="14.00">create_chart(exchange)</text>
<text text-anchor="start" x="1267.38" y="-1438.7" font-family="Times New Roman,serif" font-size="14.00">initialize()</text>
<text text-anchor="start" x="1267.38" y="-1424.7" font-family="Times New Roman,serif" font-style="italic" font-size="14.00">prompt_for_exchange_selection</text>
<text text-anchor="start" x="1449.62" y="-1424.7" font-family="Times New Roman,serif" font-size="14.00">()</text>
</g>
<!-- trade_suite.gui.components.chart.Chart&#45;&gt;trade_suite.gui.program.Program -->
<g id="edge1" class="edge">
<title>trade_suite.gui.components.chart.Chart&#45;&gt;trade_suite.gui.program.Program</title>
<path fill="none" stroke="black" d="M894.3,-1196.98C1006.25,-1282.11 1150.02,-1391.43 1248.64,-1466.42"/>
<polygon fill="black" stroke="black" points="1248.67,-1466.44 1255.86,-1466.88 1258.22,-1473.7 1251.02,-1473.25 1248.67,-1466.44"/>
<text text-anchor="middle" x="1169.88" y="-1387.2" font-family="Times New Roman,serif" font-size="14.00" fill="green">chart</text>
</g>
<!-- trade_suite.config.ConfigManager -->
<g id="node2" class="node">
<title>trade_suite.config.ConfigManager</title>
<polygon fill="none" stroke="black" points="82.25,-99 82.25,-178 243.75,-178 243.75,-99 82.25,-99"/>
<text text-anchor="start" x="119.88" y="-160.7" font-family="Times New Roman,serif" font-size="14.00">ConfigManager</text>
<polyline fill="none" stroke="black" points="82.25,-154.25 243.75,-154.25"/>
<polyline fill="none" stroke="black" points="82.25,-154.25 243.75,-154.25"/>
<text text-anchor="start" x="90.25" y="-136.95" font-family="Times New Roman,serif" font-size="14.00">get_setting(key)</text>
<text text-anchor="start" x="90.25" y="-121.2" font-family="Times New Roman,serif" font-size="14.00">load_config()</text>
<text text-anchor="start" x="90.25" y="-105.45" font-family="Times New Roman,serif" font-size="14.00">update_setting(key, value)</text>
</g>
<!-- trade_suite.config.ConfigManager&#45;&gt;trade_suite.gui.components.chart.Chart -->
<g id="edge8" class="edge">
<title>trade_suite.config.ConfigManager&#45;&gt;trade_suite.gui.components.chart.Chart</title>
<path fill="none" stroke="black" d="M143.89,-178.26C99.01,-275.18 -2.39,-533.35 92.75,-716 181.43,-886.25 389.91,-978.1 543.33,-1024.46"/>
<polygon fill="none" stroke="black" points="543.3,-1024.45 550.19,-1022.32 554.81,-1027.86 547.92,-1029.99 543.3,-1024.45"/>
<text text-anchor="middle" x="137.62" y="-516.95" font-family="Times New Roman,serif" font-size="14.00" fill="green">config_manager</text>
</g>
<!-- trade_suite.gui.components.orderbook.OrderBook -->
<g id="node6" class="node">
<title>trade_suite.gui.components.orderbook.OrderBook</title>
<polygon fill="none" stroke="black" points="191,-352.88 191,-691.88 507,-691.88 507,-352.88 191,-352.88"/>
<text text-anchor="start" x="317.12" y="-674.58" font-family="Times New Roman,serif" font-size="14.00">OrderBook</text>
<polyline fill="none" stroke="black" points="191,-668.12 507,-668.12"/>
<text text-anchor="start" x="263.88" y="-650.83" font-family="Times New Roman,serif" font-size="14.00">aggregated_order_book : bool</text>
<text text-anchor="start" x="263.88" y="-635.08" font-family="Times New Roman,serif" font-size="14.00">asks_tag</text>
<text text-anchor="start" x="263.88" y="-619.33" font-family="Times New Roman,serif" font-size="14.00">bids_tag</text>
<text text-anchor="start" x="263.88" y="-603.58" font-family="Times New Roman,serif" font-size="14.00">config</text>
<text text-anchor="start" x="263.88" y="-587.83" font-family="Times New Roman,serif" font-size="14.00">data : Data</text>
<text text-anchor="start" x="263.88" y="-572.08" font-family="Times New Roman,serif" font-size="14.00">emitter</text>
<text text-anchor="start" x="263.88" y="-556.33" font-family="Times New Roman,serif" font-size="14.00">exchange</text>
<text text-anchor="start" x="263.88" y="-540.58" font-family="Times New Roman,serif" font-size="14.00">ob_xaxis</text>
<text text-anchor="start" x="263.88" y="-524.83" font-family="Times New Roman,serif" font-size="14.00">ob_yaxis</text>
<text text-anchor="start" x="263.88" y="-509.07" font-family="Times New Roman,serif" font-size="14.00">order_book_levels : int</text>
<text text-anchor="start" x="263.88" y="-493.32" font-family="Times New Roman,serif" font-size="14.00">orderbook_tag</text>
<text text-anchor="start" x="263.88" y="-477.57" font-family="Times New Roman,serif" font-size="14.00">show_orderbook : bool</text>
<text text-anchor="start" x="263.88" y="-461.82" font-family="Times New Roman,serif" font-size="14.00">tick_size : int</text>
<polyline fill="none" stroke="black" points="191,-455.38 507,-455.38"/>
<text text-anchor="start" x="199" y="-438.07" font-family="Times New Roman,serif" font-size="14.00">on_order_book_update(exchange, orderbook)</text>
<text text-anchor="start" x="199" y="-422.32" font-family="Times New Roman,serif" font-size="14.00">set_ob_levels(sender, app_data, user_data)</text>
<text text-anchor="start" x="199" y="-406.57" font-family="Times New Roman,serif" font-size="14.00">setup_orderbook_menu()</text>
<text text-anchor="start" x="199" y="-390.82" font-family="Times New Roman,serif" font-size="14.00">toggle_aggregated_order_book()</text>
<text text-anchor="start" x="199" y="-375.07" font-family="Times New Roman,serif" font-size="14.00">toggle_orderbook()</text>
<text text-anchor="start" x="199" y="-359.32" font-family="Times New Roman,serif" font-size="14.00">update_order_book(bids_df, asks_df, price_column)</text>
</g>
<!-- trade_suite.config.ConfigManager&#45;&gt;trade_suite.gui.components.orderbook.OrderBook -->
<g id="edge9" class="edge">
<title>trade_suite.config.ConfigManager&#45;&gt;trade_suite.gui.components.orderbook.OrderBook</title>
<path fill="none" stroke="black" d="M181.86,-178.22C200.81,-217.13 231.43,-279.98 261.31,-341.33"/>
<polygon fill="none" stroke="black" points="261.22,-341.16 267.45,-344.81 266.48,-351.95 260.26,-348.31 261.22,-341.16"/>
<text text-anchor="middle" x="261.62" y="-297.45" font-family="Times New Roman,serif" font-size="14.00" fill="green">config</text>
</g>
<!-- trade_suite.config.ConfigManager&#45;&gt;trade_suite.gui.program.Program -->
<g id="edge11" class="edge">
<title>trade_suite.config.ConfigManager&#45;&gt;trade_suite.gui.program.Program</title>
<path fill="none" stroke="black" d="M161.89,-178.44C159.07,-290.9 153.71,-614.6 182,-716 271.11,-1035.41 281.46,-1168.12 547,-1366.75 656.81,-1448.89 1048.22,-1511.35 1246.33,-1538.5"/>
<polygon fill="none" stroke="black" points="1246.31,-1538.5 1252.8,-1535.35 1258.2,-1540.12 1251.72,-1543.27 1246.31,-1538.5"/>
<text text-anchor="middle" x="234.62" y="-736.45" font-family="Times New Roman,serif" font-size="14.00" fill="green">config_manager</text>
</g>
<!-- trade_suite.gui.components.trading.Trading -->
<g id="node11" class="node">
<title>trade_suite.gui.components.trading.Trading</title>
<polygon fill="none" stroke="black" points="1342.12,-329.25 1342.12,-715.5 1595.88,-715.5 1595.88,-329.25 1342.12,-329.25"/>
<text text-anchor="start" x="1447.25" y="-698.2" font-family="Times New Roman,serif" font-size="14.00">Trading</text>
<polyline fill="none" stroke="black" points="1342.12,-691.75 1595.88,-691.75"/>
<text text-anchor="start" x="1376.38" y="-674.45" font-family="Times New Roman,serif" font-size="14.00">candlestick_plot : NoneType</text>
<text text-anchor="start" x="1376.38" y="-658.7" font-family="Times New Roman,serif" font-size="14.00">config_manager</text>
<text text-anchor="start" x="1376.38" y="-642.95" font-family="Times New Roman,serif" font-size="14.00">data : Data</text>
<text text-anchor="start" x="1376.38" y="-627.2" font-family="Times New Roman,serif" font-size="14.00">emitter</text>
<text text-anchor="start" x="1376.38" y="-611.45" font-family="Times New Roman,serif" font-size="14.00">in_trade_mode : bool</text>
<text text-anchor="start" x="1376.38" y="-595.7" font-family="Times New Roman,serif" font-size="14.00">ohlcv : DataFrame</text>
<text text-anchor="start" x="1376.38" y="-579.95" font-family="Times New Roman,serif" font-size="14.00">order_table_id : NoneType</text>
<text text-anchor="start" x="1376.38" y="-564.2" font-family="Times New Roman,serif" font-size="14.00">task_manager</text>
<text text-anchor="start" x="1376.38" y="-548.45" font-family="Times New Roman,serif" font-size="14.00">timeframe_seconds</text>
<text text-anchor="start" x="1376.38" y="-532.7" font-family="Times New Roman,serif" font-size="14.00">timeframe_str : str</text>
<text text-anchor="start" x="1376.38" y="-516.95" font-family="Times New Roman,serif" font-size="14.00">trade_mode_drag_line_tag : bool</text>
<polyline fill="none" stroke="black" points="1342.12,-510.5 1595.88,-510.5"/>
<text text-anchor="start" x="1350.12" y="-493.2" font-family="Times New Roman,serif" font-size="14.00">add_order_to_table(order)</text>
<text text-anchor="start" x="1350.12" y="-477.45" font-family="Times New Roman,serif" font-size="14.00">create_order_table(orders)</text>
<text text-anchor="start" x="1350.12" y="-461.7" font-family="Times New Roman,serif" font-size="14.00">on_new_candles(exchange, candles)</text>
<text text-anchor="start" x="1350.12" y="-445.95" font-family="Times New Roman,serif" font-size="14.00">on_new_trade(exchange, trade_data)</text>
<text text-anchor="start" x="1350.12" y="-430.2" font-family="Times New Roman,serif" font-size="14.00">on_timeframe_change(new_timeframe: str)</text>
<text text-anchor="start" x="1350.12" y="-414.45" font-family="Times New Roman,serif" font-size="14.00">place_order(sender, app_data, user_data)</text>
<text text-anchor="start" x="1350.12" y="-398.7" font-family="Times New Roman,serif" font-size="14.00">register_event_listeners()</text>
<text text-anchor="start" x="1350.12" y="-382.95" font-family="Times New Roman,serif" font-size="14.00">setup_orders()</text>
<text text-anchor="start" x="1350.12" y="-367.2" font-family="Times New Roman,serif" font-size="14.00">setup_trading_menu()</text>
<text text-anchor="start" x="1350.12" y="-351.45" font-family="Times New Roman,serif" font-size="14.00">toggle_drag_line()</text>
<text text-anchor="start" x="1350.12" y="-335.7" font-family="Times New Roman,serif" font-size="14.00">toggle_place_order()</text>
</g>
<!-- trade_suite.config.ConfigManager&#45;&gt;trade_suite.gui.components.trading.Trading -->
<g id="edge10" class="edge">
<title>trade_suite.config.ConfigManager&#45;&gt;trade_suite.gui.components.trading.Trading</title>
<path fill="none" stroke="black" d="M197.13,-178.17C236.73,-219.89 306.31,-283.93 381.75,-310.75 429.32,-327.66 1211.13,-306.1 1329.63,-330.09"/>
<polygon fill="none" stroke="black" points="1329.45,-330.03 1336.36,-327.95 1340.94,-333.52 1334.03,-335.6 1329.45,-330.03"/>
<text text-anchor="middle" x="425.62" y="-297.45" font-family="Times New Roman,serif" font-size="14.00" fill="green">config_manager</text>
</g>
<!-- trade_suite.gui.viewport.Viewport -->
<g id="node12" class="node">
<title>trade_suite.gui.viewport.Viewport</title>
<polygon fill="none" stroke="black" points="1301.38,-1742.5 1301.38,-1892.5 1424.62,-1892.5 1424.62,-1742.5 1301.38,-1742.5"/>
<text text-anchor="start" x="1337.12" y="-1875.2" font-family="Times New Roman,serif" font-size="14.00">Viewport</text>
<polyline fill="none" stroke="black" points="1301.38,-1868.75 1424.62,-1868.75"/>
<text text-anchor="start" x="1318.38" y="-1851.45" font-family="Times New Roman,serif" font-size="14.00">config_manager</text>
<text text-anchor="start" x="1318.38" y="-1835.7" font-family="Times New Roman,serif" font-size="14.00">data : Data</text>
<text text-anchor="start" x="1318.38" y="-1819.95" font-family="Times New Roman,serif" font-size="14.00">program</text>
<text text-anchor="start" x="1318.38" y="-1804.2" font-family="Times New Roman,serif" font-size="14.00">task_manager</text>
<polyline fill="none" stroke="black" points="1301.38,-1797.75 1424.62,-1797.75"/>
<text text-anchor="start" x="1309.38" y="-1780.45" font-family="Times New Roman,serif" font-size="14.00">initialize_program()</text>
<text text-anchor="start" x="1309.38" y="-1764.7" font-family="Times New Roman,serif" font-size="14.00">load_theme()</text>
<text text-anchor="start" x="1309.38" y="-1748.95" font-family="Times New Roman,serif" font-size="14.00">setup_dpg()</text>
</g>
<!-- trade_suite.config.ConfigManager&#45;&gt;trade_suite.gui.viewport.Viewport -->
<g id="edge12" class="edge">
<title>trade_suite.config.ConfigManager&#45;&gt;trade_suite.gui.viewport.Viewport</title>
<path fill="none" stroke="black" d="M133.86,-178.39C86.97,-244.95 0,-386.58 0,-521.38 0,-521.38 0,-521.38 0,-1555.38 0,-1687.66 1003.18,-1785.16 1288.26,-1810.19"/>
<polygon fill="none" stroke="black" points="1288.04,-1810.18 1294.37,-1806.71 1299.99,-1811.22 1293.67,-1814.68 1288.04,-1810.18"/>
<text text-anchor="middle" x="44.62" y="-1061.83" font-family="Times New Roman,serif" font-size="14.00" fill="green">config_manager</text>
</g>
<!-- trade_suite.gui.components.indicators.Indicators -->
<g id="node3" class="node">
<title>trade_suite.gui.components.indicators.Indicators</title>
<polygon fill="none" stroke="black" points="598.12,-329.25 598.12,-715.5 851.88,-715.5 851.88,-329.25 598.12,-329.25"/>
<text text-anchor="start" x="696.88" y="-698.2" font-family="Times New Roman,serif" font-size="14.00">Indicators</text>
<polyline fill="none" stroke="black" points="598.12,-691.75 851.88,-691.75"/>
<text text-anchor="start" x="634.62" y="-674.45" font-family="Times New Roman,serif" font-size="14.00">candle_series_yaxis : NoneType</text>
<text text-anchor="start" x="634.62" y="-658.7" font-family="Times New Roman,serif" font-size="14.00">emitter</text>
<text text-anchor="start" x="634.62" y="-642.95" font-family="Times New Roman,serif" font-size="14.00">exchange_settings</text>
<text text-anchor="start" x="634.62" y="-627.2" font-family="Times New Roman,serif" font-size="14.00">indicators : dict</text>
<text text-anchor="start" x="634.62" y="-611.45" font-family="Times New Roman,serif" font-size="14.00">line_series_ids : dict</text>
<text text-anchor="start" x="634.62" y="-595.7" font-family="Times New Roman,serif" font-size="14.00">ohlcv : DataFrame</text>
<text text-anchor="start" x="634.62" y="-579.95" font-family="Times New Roman,serif" font-size="14.00">show_ema : bool</text>
<text text-anchor="start" x="634.62" y="-564.2" font-family="Times New Roman,serif" font-size="14.00">span : list</text>
<text text-anchor="start" x="634.62" y="-548.45" font-family="Times New Roman,serif" font-size="14.00">timeframe_seconds</text>
<text text-anchor="start" x="634.62" y="-532.7" font-family="Times New Roman,serif" font-size="14.00">timeframe_str : str</text>
<polyline fill="none" stroke="black" points="598.12,-526.25 851.88,-526.25"/>
<text text-anchor="start" x="606.12" y="-508.95" font-family="Times New Roman,serif" font-size="14.00">add_indicator_to_chart(indicator_name)</text>
<text text-anchor="start" x="606.12" y="-493.2" font-family="Times New Roman,serif" font-size="14.00">add_line_series(ema_values)</text>
<text text-anchor="start" x="606.12" y="-477.45" font-family="Times New Roman,serif" font-size="14.00">create_indicators_menu()</text>
<text text-anchor="start" x="606.12" y="-461.7" font-family="Times New Roman,serif" font-size="14.00">create_test_menu()</text>
<text text-anchor="start" x="606.12" y="-445.95" font-family="Times New Roman,serif" font-size="14.00">on_new_candles(exchange, candles)</text>
<text text-anchor="start" x="606.12" y="-430.2" font-family="Times New Roman,serif" font-size="14.00">on_new_trade(exchange, trade_data)</text>
<text text-anchor="start" x="606.12" y="-414.45" font-family="Times New Roman,serif" font-size="14.00">on_timeframe_change(new_timeframe: str)</text>
<text text-anchor="start" x="606.12" y="-398.7" font-family="Times New Roman,serif" font-size="14.00">plot_indicator_series(values, label)</text>
<text text-anchor="start" x="606.12" y="-382.95" font-family="Times New Roman,serif" font-size="14.00">recalculate_ema()</text>
<text text-anchor="start" x="606.12" y="-367.2" font-family="Times New Roman,serif" font-size="14.00">register_event_listeners()</text>
<text text-anchor="start" x="606.12" y="-351.45" font-family="Times New Roman,serif" font-size="14.00">toggle_ema(sender, app_data, user_data)</text>
<text text-anchor="start" x="606.12" y="-335.7" font-family="Times New Roman,serif" font-size="14.00">toggle_indicator(u)</text>
</g>
<!-- trade_suite.gui.components.indicators.Indicators&#45;&gt;trade_suite.gui.components.chart.Chart -->
<g id="edge2" class="edge">
<title>trade_suite.gui.components.indicators.Indicators&#45;&gt;trade_suite.gui.components.chart.Chart</title>
<path fill="none" stroke="black" d="M725,-715.92C725,-728.86 725,-742.06 725,-755.39"/>
<polygon fill="black" stroke="black" points="725,-755.3 729,-761.3 725,-767.3 721,-761.3 725,-755.3"/>
<text text-anchor="middle" x="752.38" y="-736.45" font-family="Times New Roman,serif" font-size="14.00" fill="green">indicators</text>
</g>
<!-- trade_suite.analysis.market_aggregator.MarketAggregator -->
<g id="node4" class="node">
<title>trade_suite.analysis.market_aggregator.MarketAggregator</title>
<polygon fill="none" stroke="black" points="870,-415.88 870,-628.88 1324,-628.88 1324,-415.88 870,-415.88"/>
<text text-anchor="start" x="1046.38" y="-611.58" font-family="Times New Roman,serif" font-size="14.00">MarketAggregator</text>
<polyline fill="none" stroke="black" points="870,-605.12 1324,-605.12"/>
<text text-anchor="start" x="1022.75" y="-587.83" font-family="Times New Roman,serif" font-size="14.00">emitter</text>
<text text-anchor="start" x="1022.75" y="-572.08" font-family="Times New Roman,serif" font-size="14.00">influx : InfluxDB</text>
<text text-anchor="start" x="1022.75" y="-556.33" font-family="Times New Roman,serif" font-size="14.00">order_size_categories : list</text>
<text text-anchor="start" x="1022.75" y="-540.58" font-family="Times New Roman,serif" font-size="14.00">trade_stats : defaultdict</text>
<polyline fill="none" stroke="black" points="870,-534.12 1324,-534.12"/>
<text text-anchor="start" x="878" y="-516.83" font-family="Times New Roman,serif" font-size="14.00">calc_trade_stats(exchange: str, trades: List[str]): None</text>
<text text-anchor="start" x="878" y="-501.07" font-family="Times New Roman,serif" font-size="14.00">get_order_size_category_(order_cost)</text>
<text text-anchor="start" x="878" y="-485.32" font-family="Times New Roman,serif" font-size="14.00">group_and_aggregate(orders, tick_size)</text>
<text text-anchor="start" x="878" y="-469.57" font-family="Times New Roman,serif" font-size="14.00">on_order_book_update(exchange, orderbook, tick_size, aggregate, ob_levels)</text>
<text text-anchor="start" x="878" y="-453.82" font-family="Times New Roman,serif" font-size="14.00">perform_resampling(data, timeframe)</text>
<text text-anchor="start" x="878" y="-438.07" font-family="Times New Roman,serif" font-size="14.00">report_statistics()</text>
<text text-anchor="start" x="878" y="-422.32" font-family="Times New Roman,serif" font-size="14.00">resample_data(ohlcv: pd.DataFrame, timeframe_str)</text>
</g>
<!-- trade_suite.gui.program.MenuBar -->
<g id="node5" class="node">
<title>trade_suite.gui.program.MenuBar</title>
<polygon fill="none" stroke="black" points="1613.75,-463.12 1613.75,-581.62 1700.25,-581.62 1700.25,-463.12 1613.75,-463.12"/>
<text text-anchor="start" x="1631.5" y="-564.33" font-family="Times New Roman,serif" font-size="14.00">MenuBar</text>
<polyline fill="none" stroke="black" points="1613.75,-557.88 1700.25,-557.88"/>
<text text-anchor="start" x="1621.75" y="-540.58" font-family="Times New Roman,serif" font-size="14.00">data : Data</text>
<text text-anchor="start" x="1621.75" y="-524.83" font-family="Times New Roman,serif" font-size="14.00">emitter</text>
<text text-anchor="start" x="1621.75" y="-509.07" font-family="Times New Roman,serif" font-size="14.00">tag</text>
<text text-anchor="start" x="1621.75" y="-493.32" font-family="Times New Roman,serif" font-size="14.00">task_manger</text>
<polyline fill="none" stroke="black" points="1613.75,-486.88 1700.25,-486.88"/>
<text text-anchor="start" x="1655.12" y="-469.57" font-family="Times New Roman,serif" font-size="14.00"> </text>
</g>
<!-- trade_suite.gui.program.MenuBar&#45;&gt;trade_suite.gui.program.Program -->
<g id="edge5" class="edge">
<title>trade_suite.gui.program.MenuBar&#45;&gt;trade_suite.gui.program.Program</title>
<path fill="none" stroke="black" d="M1641.45,-582.04C1631.26,-620.24 1617.54,-671.13 1605,-716 1537.25,-958.43 1455.38,-1239.34 1406.33,-1406.38"/>
<polygon fill="black" stroke="black" points="1406.35,-1406.33 1408.5,-1413.21 1402.97,-1417.84 1400.82,-1410.96 1406.35,-1406.33"/>
<text text-anchor="middle" x="1614.75" y="-1061.83" font-family="Times New Roman,serif" font-size="14.00" fill="green">menu_bar</text>
</g>
<!-- trade_suite.gui.components.orderbook.OrderBook&#45;&gt;trade_suite.gui.components.chart.Chart -->
<g id="edge3" class="edge">
<title>trade_suite.gui.components.orderbook.OrderBook&#45;&gt;trade_suite.gui.components.chart.Chart</title>
<path fill="none" stroke="black" d="M434.56,-692.34C445.85,-712.02 457.71,-731.55 469.75,-749.75 493.6,-785.81 520.64,-822.73 547.99,-858.03"/>
<polygon fill="black" stroke="black" points="547.79,-857.77 554.63,-860.04 555.16,-867.23 548.32,-864.96 547.79,-857.77"/>
<text text-anchor="middle" x="498.62" y="-736.45" font-family="Times New Roman,serif" font-size="14.00" fill="green">orderbook</text>
</g>
<!-- trade_suite.gui.program.Program&#45;&gt;trade_suite.gui.viewport.Viewport -->
<g id="edge6" class="edge">
<title>trade_suite.gui.program.Program&#45;&gt;trade_suite.gui.viewport.Viewport</title>
<path fill="none" stroke="black" d="M1363,-1690.14C1363,-1703.47 1363,-1716.74 1363,-1729.4"/>
<polygon fill="black" stroke="black" points="1363,-1729.44 1367,-1735.44 1363,-1741.44 1359,-1735.44 1363,-1729.44"/>
<text text-anchor="middle" x="1386.62" y="-1710.7" font-family="Times New Roman,serif" font-size="14.00" fill="green">program</text>
</g>
<!-- trade_suite.gui.signals.SignalEmitter -->
<g id="node8" class="node">
<title>trade_suite.gui.signals.SignalEmitter</title>
<polygon fill="none" stroke="black" points="858.38,-99 858.38,-178 1119.62,-178 1119.62,-99 858.38,-99"/>
<text text-anchor="start" x="952.25" y="-160.7" font-family="Times New Roman,serif" font-size="14.00">SignalEmitter</text>
<polyline fill="none" stroke="black" points="858.38,-154.25 1119.62,-154.25"/>
<polyline fill="none" stroke="black" points="858.38,-154.25 1119.62,-154.25"/>
<text text-anchor="start" x="866.38" y="-136.95" font-family="Times New Roman,serif" font-size="14.00">emit(signal: Signals)</text>
<text text-anchor="start" x="866.38" y="-121.2" font-family="Times New Roman,serif" font-size="14.00">register(signal: Signals, callback: Callable)</text>
<text text-anchor="start" x="866.38" y="-105.45" font-family="Times New Roman,serif" font-size="14.00">unregister(signal: Signals, callback: Callable)</text>
</g>
<!-- trade_suite.gui.signals.SignalEmitter&#45;&gt;trade_suite.gui.components.chart.Chart -->
<g id="edge14" class="edge">
<title>trade_suite.gui.signals.SignalEmitter&#45;&gt;trade_suite.gui.components.chart.Chart</title>
<path fill="none" stroke="black" d="M858.05,-157.25C755.39,-178.81 618.98,-226.04 551.5,-328.75 504.25,-400.67 531.88,-632.21 551.5,-716 554.61,-729.28 558.3,-742.63 562.46,-755.96"/>
<polygon fill="none" stroke="black" points="562.45,-755.92 568.1,-760.4 566.13,-767.34 560.48,-762.86 562.45,-755.92"/>
<text text-anchor="middle" x="569.75" y="-516.95" font-family="Times New Roman,serif" font-size="14.00" fill="green">emitter</text>
</g>
<!-- trade_suite.gui.signals.SignalEmitter&#45;&gt;trade_suite.gui.components.indicators.Indicators -->
<g id="edge15" class="edge">
<title>trade_suite.gui.signals.SignalEmitter&#45;&gt;trade_suite.gui.components.indicators.Indicators</title>
<path fill="none" stroke="black" d="M962.23,-178.22C937.43,-214.1 898.56,-270.33 859.4,-326.96"/>
<polygon fill="none" stroke="black" points="859.43,-326.93 859.3,-334.14 852.6,-336.8 852.72,-329.59 859.43,-326.93"/>
<text text-anchor="middle" x="898.75" y="-297.45" font-family="Times New Roman,serif" font-size="14.00" fill="green">emitter</text>
</g>
<!-- trade_suite.gui.signals.SignalEmitter&#45;&gt;trade_suite.analysis.market_aggregator.MarketAggregator -->
<g id="edge13" class="edge">
<title>trade_suite.gui.signals.SignalEmitter&#45;&gt;trade_suite.analysis.market_aggregator.MarketAggregator</title>
<path fill="none" stroke="black" d="M999.95,-178.22C1014.76,-230.59 1041.84,-326.34 1063.64,-403.41"/>
<polygon fill="none" stroke="black" points="1063.58,-403.19 1069.06,-407.88 1066.84,-414.74 1061.36,-410.05 1063.58,-403.19"/>
<text text-anchor="middle" x="1054.75" y="-297.45" font-family="Times New Roman,serif" font-size="14.00" fill="green">emitter</text>
</g>
<!-- trade_suite.gui.signals.SignalEmitter&#45;&gt;trade_suite.gui.program.MenuBar -->
<g id="edge18" class="edge">
<title>trade_suite.gui.signals.SignalEmitter&#45;&gt;trade_suite.gui.program.MenuBar</title>
<path fill="none" stroke="black" d="M1097.76,-178.47C1204.09,-215.67 1371.06,-271.69 1518.5,-310.75 1556.46,-320.81 1576.43,-301.81 1605,-328.75 1637.74,-359.63 1650.64,-408.79 1655.41,-449.71"/>
<polygon fill="none" stroke="black" points="1655.42,-449.84 1659.99,-455.42 1656.6,-461.78 1652.03,-456.2 1655.42,-449.84"/>
<text text-anchor="middle" x="1536.75" y="-297.45" font-family="Times New Roman,serif" font-size="14.00" fill="green">emitter</text>
</g>
<!-- trade_suite.gui.signals.SignalEmitter&#45;&gt;trade_suite.gui.components.orderbook.OrderBook -->
<g id="edge16" class="edge">
<title>trade_suite.gui.signals.SignalEmitter&#45;&gt;trade_suite.gui.components.orderbook.OrderBook</title>
<path fill="none" stroke="black" d="M858,-155C750.37,-173.31 598.71,-212.49 491.5,-295 473.88,-308.56 457.86,-324.97 443.47,-342.69"/>
<polygon fill="none" stroke="black" points="443.61,-342.51 443.05,-349.7 436.2,-351.94 436.76,-344.76 443.61,-342.51"/>
<text text-anchor="middle" x="509.75" y="-297.45" font-family="Times New Roman,serif" font-size="14.00" fill="green">emitter</text>
</g>
<!-- trade_suite.gui.signals.SignalEmitter&#45;&gt;trade_suite.gui.components.trading.Trading -->
<g id="edge17" class="edge">
<title>trade_suite.gui.signals.SignalEmitter&#45;&gt;trade_suite.gui.components.trading.Trading</title>
<path fill="none" stroke="black" d="M1085.76,-178.4C1156.22,-209.81 1251.64,-258.96 1332.3,-328.58"/>
<polygon fill="none" stroke="black" points="1332.38,-328.64 1339.52,-329.6 1341.38,-336.57 1334.24,-335.61 1332.38,-328.64"/>
<text text-anchor="middle" x="1326.75" y="-297.45" font-family="Times New Roman,serif" font-size="14.00" fill="green">emitter</text>
</g>
<!-- trade_suite.gui.signals.Signals -->
<g id="node9" class="node">
<title>trade_suite.gui.signals.Signals</title>
<polygon fill="none" stroke="black" points="1924.12,-102.88 1924.12,-174.12 1979.88,-174.12 1979.88,-102.88 1924.12,-102.88"/>
<text text-anchor="start" x="1932.12" y="-156.82" font-family="Times New Roman,serif" font-size="14.00">Signals</text>
<polyline fill="none" stroke="black" points="1924.12,-150.38 1979.88,-150.38"/>
<text text-anchor="start" x="1937.38" y="-133.07" font-family="Times New Roman,serif" font-size="14.00">name</text>
<polyline fill="none" stroke="black" points="1924.12,-126.62 1979.88,-126.62"/>
<text text-anchor="start" x="1950.12" y="-109.33" font-family="Times New Roman,serif" font-size="14.00"> </text>
</g>
<!-- trade_suite.gui.task_manager.TaskManager -->
<g id="node10" class="node">
<title>trade_suite.gui.task_manager.TaskManager</title>
<polygon fill="none" stroke="black" points="1566,-0.5 1566,-276.5 1906,-276.5 1906,-0.5 1566,-0.5"/>
<text text-anchor="start" x="1698.12" y="-259.2" font-family="Times New Roman,serif" font-size="14.00">TaskManager</text>
<polyline fill="none" stroke="black" points="1566,-252.75 1906,-252.75"/>
<text text-anchor="start" x="1660.62" y="-235.45" font-family="Times New Roman,serif" font-size="14.00">active_symbol : NoneType</text>
<text text-anchor="start" x="1660.62" y="-219.7" font-family="Times New Roman,serif" font-size="14.00">data : Data</text>
<text text-anchor="start" x="1660.62" y="-203.95" font-family="Times New Roman,serif" font-size="14.00">loop</text>
<text text-anchor="start" x="1660.62" y="-188.2" font-family="Times New Roman,serif" font-size="14.00">tabs : dict</text>
<text text-anchor="start" x="1660.62" y="-172.45" font-family="Times New Roman,serif" font-size="14.00">tasks : dict</text>
<text text-anchor="start" x="1660.62" y="-156.7" font-family="Times New Roman,serif" font-size="14.00">thread : Thread</text>
<text text-anchor="start" x="1660.62" y="-140.95" font-family="Times New Roman,serif" font-size="14.00">visable_tab : NoneType</text>
<polyline fill="none" stroke="black" points="1566,-134.5 1906,-134.5"/>
<text text-anchor="start" x="1574" y="-117.2" font-family="Times New Roman,serif" font-size="14.00">get_candles_for_market(exchange, symbol, timeframe)</text>
<text text-anchor="start" x="1574" y="-101.45" font-family="Times New Roman,serif" font-size="14.00">run_loop()</text>
<text text-anchor="start" x="1574" y="-85.7" font-family="Times New Roman,serif" font-size="14.00">run_task_until_complete(coro)</text>
<text text-anchor="start" x="1574" y="-69.95" font-family="Times New Roman,serif" font-size="14.00">set_visable_tab(sender, app_data, user_data)</text>
<text text-anchor="start" x="1574" y="-54.2" font-family="Times New Roman,serif" font-size="14.00">start_stream_for_chart(tab, exchange, symbol, timeframe)</text>
<text text-anchor="start" x="1574" y="-38.45" font-family="Times New Roman,serif" font-size="14.00">start_task(name: str, coro)</text>
<text text-anchor="start" x="1574" y="-22.7" font-family="Times New Roman,serif" font-size="14.00">stop_all_tasks()</text>
<text text-anchor="start" x="1574" y="-6.95" font-family="Times New Roman,serif" font-size="14.00">stop_task(name: str)</text>
</g>
<!-- trade_suite.gui.task_manager.TaskManager&#45;&gt;trade_suite.gui.components.chart.Chart -->
<g id="edge19" class="edge">
<title>trade_suite.gui.task_manager.TaskManager&#45;&gt;trade_suite.gui.components.chart.Chart</title>
<path fill="none" stroke="black" d="M1738.41,-276.98C1739.85,-437.07 1737.33,-683.83 1709,-716 1621.03,-815.9 1541.51,-729.53 1414,-767.75 1235.76,-821.18 1042.09,-907.83 905.6,-974.04"/>
<polygon fill="none" stroke="black" points="905.83,-973.93 902.18,-980.15 895.03,-979.18 898.68,-972.96 905.83,-973.93"/>
<text text-anchor="middle" x="1776.25" y="-516.95" font-family="Times New Roman,serif" font-size="14.00" fill="green">task_manager</text>
</g>
<!-- trade_suite.gui.task_manager.TaskManager&#45;&gt;trade_suite.gui.program.MenuBar -->
<g id="edge21" class="edge">
<title>trade_suite.gui.task_manager.TaskManager&#45;&gt;trade_suite.gui.program.MenuBar</title>
<path fill="none" stroke="black" d="M1656.98,-276.67C1654.9,-282.77 1653.05,-288.9 1651.5,-295 1638.63,-345.63 1640.6,-404.69 1645.48,-449.79"/>
<polygon fill="none" stroke="black" points="1645.49,-449.9 1650.16,-455.4 1646.89,-461.82 1642.22,-456.33 1645.49,-449.9"/>
<text text-anchor="middle" x="1686.25" y="-297.45" font-family="Times New Roman,serif" font-size="14.00" fill="green">task_manger</text>
</g>
<!-- trade_suite.gui.task_manager.TaskManager&#45;&gt;trade_suite.gui.program.Program -->
<g id="edge22" class="edge">
<title>trade_suite.gui.task_manager.TaskManager&#45;&gt;trade_suite.gui.program.Program</title>
<path fill="none" stroke="black" d="M1803.97,-276.86C1810.13,-293.99 1815.39,-311.54 1819,-328.75 1854.32,-497.2 1841.18,-545.32 1819,-716 1780.46,-1012.66 1821.77,-1123.96 1647,-1366.75 1604.42,-1425.9 1536.8,-1471.43 1478.22,-1502.7"/>
<polygon fill="none" stroke="black" points="1478.45,-1502.58 1474.99,-1508.91 1467.82,-1508.15 1471.27,-1501.82 1478.45,-1502.58"/>
<text text-anchor="middle" x="1854.25" y="-736.45" font-family="Times New Roman,serif" font-size="14.00" fill="green">task_manager</text>
</g>
<!-- trade_suite.gui.task_manager.TaskManager&#45;&gt;trade_suite.gui.components.trading.Trading -->
<g id="edge20" class="edge">
<title>trade_suite.gui.task_manager.TaskManager&#45;&gt;trade_suite.gui.components.trading.Trading</title>
<path fill="none" stroke="black" d="M1581.41,-276.71C1576.54,-282.73 1571.88,-288.84 1567.5,-295 1562.31,-302.3 1557.31,-309.92 1552.51,-317.75"/>
<polygon fill="none" stroke="black" points="1552.44,-317.87 1552.81,-325.07 1546.3,-328.19 1545.93,-320.99 1552.44,-317.87"/>
<text text-anchor="middle" x="1605.25" y="-297.45" font-family="Times New Roman,serif" font-size="14.00" fill="green">task_manager</text>
</g>
<!-- trade_suite.gui.task_manager.TaskManager&#45;&gt;trade_suite.gui.viewport.Viewport -->
<g id="edge7" class="edge">
<title>trade_suite.gui.task_manager.TaskManager&#45;&gt;trade_suite.gui.viewport.Viewport</title>
<path fill="none" stroke="black" d="M1846.59,-276.91C1891.5,-346.08 1933,-433.72 1933,-521.38 1933,-521.38 1933,-521.38 1933,-1555.38 1933,-1770.82 1592.24,-1809.21 1437.67,-1815.54"/>
<polygon fill="black" stroke="black" points="1437.98,-1815.53 1432.13,-1819.75 1425.99,-1815.97 1431.84,-1811.76 1437.98,-1815.53"/>
<text text-anchor="middle" x="1971.25" y="-1061.83" font-family="Times New Roman,serif" font-size="14.00" fill="green">task_manager</text>
</g>
<!-- trade_suite.gui.components.trading.Trading&#45;&gt;trade_suite.gui.components.chart.Chart -->
<g id="edge4" class="edge">
<title>trade_suite.gui.components.trading.Trading&#45;&gt;trade_suite.gui.components.chart.Chart</title>
<path fill="none" stroke="black" d="M1341.99,-707.5C1339.02,-710.4 1336.02,-713.24 1333,-716 1205.98,-831.83 1034.25,-926.39 905.69,-987.93"/>
<polygon fill="black" stroke="black" points="905.82,-987.87 902.13,-994.06 894.99,-993.02 898.69,-986.83 905.82,-987.87"/>
<text text-anchor="middle" x="1323.12" y="-736.45" font-family="Times New Roman,serif" font-size="14.00" fill="green">trading</text>
</g>
</g>
</svg>
