<?xml version="1.0" encoding="UTF-8" standalone="no"?>
<!DOCTYPE svg PUBLIC "-//W3C//DTD SVG 1.1//EN"
 "http://www.w3.org/Graphics/SVG/1.1/DTD/svg11.dtd">
<!-- Generated by graphviz version 9.0.0 (20230911.1827)
 -->
<!-- Title: packages Pages: 1 -->
<svg width="2655pt" height="44pt"
 viewBox="0.00 0.00 2654.88 44.00" xmlns="http://www.w3.org/2000/svg" xmlns:xlink="http://www.w3.org/1999/xlink">
<g id="graph0" class="graph" transform="scale(1 1) rotate(0) translate(4 40)">
<title>packages</title>
<polygon fill="white" stroke="none" points="-4,4 -4,-40 2650.88,-40 2650.88,4 -4,4"/>
<!-- CVD Dash.src -->
<g id="node1" class="node">
<title>CVD Dash.src</title>
<polygon fill="none" stroke="black" points="98.5,-36 0,-36 0,0 98.5,0 98.5,-36"/>
<text text-anchor="middle" x="49.25" y="-12.57" font-family="Times New Roman,serif" font-size="14.00">CVD Dash.src</text>
</g>
<!-- CVD Dash.src.analysis -->
<g id="node2" class="node">
<title>CVD Dash.src.analysis</title>
<polygon fill="none" stroke="black" points="262.12,-36 116.38,-36 116.38,0 262.12,0 262.12,-36"/>
<text text-anchor="middle" x="189.25" y="-12.57" font-family="Times New Roman,serif" font-size="14.00">CVD Dash.src.analysis</text>
</g>
<!-- CVD Dash.src.analysis.market_aggregator -->
<g id="node3" class="node">
<title>CVD Dash.src.analysis.market_aggregator</title>
<polygon fill="none" stroke="black" points="532.75,-36 279.75,-36 279.75,0 532.75,0 532.75,-36"/>
<text text-anchor="middle" x="406.25" y="-12.57" font-family="Times New Roman,serif" font-size="14.00">CVD Dash.src.analysis.market_aggregator</text>
</g>
<!-- CVD Dash.src.analysis.market_analysis -->
<g id="node4" class="node">
<title>CVD Dash.src.analysis.market_analysis</title>
<polygon fill="none" stroke="black" points="789.25,-36 551.25,-36 551.25,0 789.25,0 789.25,-36"/>
<text text-anchor="middle" x="670.25" y="-12.57" font-family="Times New Roman,serif" font-size="14.00">CVD Dash.src.analysis.market_analysis</text>
</g>
<!-- CVD Dash.src.analysis.technical_analysis -->
<g id="node5" class="node">
<title>CVD Dash.src.analysis.technical_analysis</title>
<polygon fill="none" stroke="black" points="1056.88,-36 807.62,-36 807.62,0 1056.88,0 1056.88,-36"/>
<text text-anchor="middle" x="932.25" y="-12.57" font-family="Times New Roman,serif" font-size="14.00">CVD Dash.src.analysis.technical_analysis</text>
</g>
<!-- CVD Dash.src.gui -->
<g id="node6" class="node">
<title>CVD Dash.src.gui</title>
<polygon fill="none" stroke="black" points="1193.62,-36 1074.88,-36 1074.88,0 1193.62,0 1193.62,-36"/>
<text text-anchor="middle" x="1134.25" y="-12.57" font-family="Times New Roman,serif" font-size="14.00">CVD Dash.src.gui</text>
</g>
<!-- CVD Dash.src.gui.components -->
<g id="node7" class="node">
<title>CVD Dash.src.gui.components</title>
<polygon fill="none" stroke="black" points="1403,-36 1211.5,-36 1211.5,0 1403,0 1403,-36"/>
<text text-anchor="middle" x="1307.25" y="-12.57" font-family="Times New Roman,serif" font-size="14.00">CVD Dash.src.gui.components</text>
</g>
<!-- CVD Dash.src.gui.components.chart -->
<g id="node8" class="node">
<title>CVD Dash.src.gui.components.chart</title>
<polygon fill="none" stroke="black" points="1643.75,-36 1420.75,-36 1420.75,0 1643.75,0 1643.75,-36"/>
<text text-anchor="middle" x="1532.25" y="-12.57" font-family="Times New Roman,serif" font-size="14.00">CVD Dash.src.gui.components.chart</text>
</g>
<!-- CVD Dash.src.gui.components.test_window -->
<g id="node9" class="node">
<title>CVD Dash.src.gui.components.test_window</title>
<polygon fill="none" stroke="black" points="1928.5,-36 1662,-36 1662,0 1928.5,0 1928.5,-36"/>
<text text-anchor="middle" x="1795.25" y="-12.57" font-family="Times New Roman,serif" font-size="14.00">CVD Dash.src.gui.components.test_window</text>
</g>
<!-- CVD Dash.src.gui.program -->
<g id="node10" class="node">
<title>CVD Dash.src.gui.program</title>
<polygon fill="none" stroke="black" points="2116.12,-36 1946.38,-36 1946.38,0 2116.12,0 2116.12,-36"/>
<text text-anchor="middle" x="2031.25" y="-12.57" font-family="Times New Roman,serif" font-size="14.00">CVD Dash.src.gui.program</text>
</g>
<!-- CVD Dash.src.gui.signals -->
<g id="node11" class="node">
<title>CVD Dash.src.gui.signals</title>
<polygon fill="none" stroke="black" points="2294.25,-36 2134.25,-36 2134.25,0 2294.25,0 2294.25,-36"/>
<text text-anchor="middle" x="2214.25" y="-12.57" font-family="Times New Roman,serif" font-size="14.00">CVD Dash.src.gui.signals</text>
</g>
<!-- CVD Dash.src.gui.tags -->
<g id="node12" class="node">
<title>CVD Dash.src.gui.tags</title>
<polygon fill="none" stroke="black" points="2457.75,-36 2312.75,-36 2312.75,0 2457.75,0 2457.75,-36"/>
<text text-anchor="middle" x="2385.25" y="-12.57" font-family="Times New Roman,serif" font-size="14.00">CVD Dash.src.gui.tags</text>
</g>
<!-- CVD Dash.src.gui.viewport -->
<g id="node13" class="node">
<title>CVD Dash.src.gui.viewport</title>
<polygon fill="none" stroke="black" points="2646.88,-36 2475.62,-36 2475.62,0 2646.88,0 2646.88,-36"/>
<text text-anchor="middle" x="2561.25" y="-12.57" font-family="Times New Roman,serif" font-size="14.00">CVD Dash.src.gui.viewport</text>
</g>
</g>
</svg>
