<?xml version="1.0" encoding="UTF-8" standalone="no"?>
<!DOCTYPE svg PUBLIC "-//W3C//DTD SVG 1.1//EN"
 "http://www.w3.org/Graphics/SVG/1.1/DTD/svg11.dtd">
<!-- Generated by graphviz version 9.0.0 (20230911.1827)
 -->
<!-- Title: packages Pages: 1 -->
<svg width="1202pt" height="404pt"
 viewBox="0.00 0.00 1202.25 404.00" xmlns="http://www.w3.org/2000/svg" xmlns:xlink="http://www.w3.org/1999/xlink">
<g id="graph0" class="graph" transform="scale(1 1) rotate(0) translate(4 400)">
<title>packages</title>
<polygon fill="white" stroke="none" points="-4,4 -4,-400 1198.25,-400 1198.25,4 -4,4"/>
<!-- trade_suite -->
<g id="node1" class="node">
<title>trade_suite</title>
<polygon fill="none" stroke="black" points="76.75,-36 0,-36 0,0 76.75,0 76.75,-36"/>
<text text-anchor="middle" x="38.38" y="-12.57" font-family="Times New Roman,serif" font-size="14.00">trade_suite</text>
</g>
<!-- trade_suite.analysis -->
<g id="node2" class="node">
<title>trade_suite.analysis</title>
<polygon fill="none" stroke="black" points="218.38,-36 94.38,-36 94.38,0 218.38,0 218.38,-36"/>
<text text-anchor="middle" x="156.38" y="-12.57" font-family="Times New Roman,serif" font-size="14.00">trade_suite.analysis</text>
</g>
<!-- trade_suite.analysis.market_aggregator -->
<g id="node3" class="node">
<title>trade_suite.analysis.market_aggregator</title>
<polygon fill="none" stroke="black" points="270,-324 38.75,-324 38.75,-288 270,-288 270,-324"/>
<text text-anchor="middle" x="154.38" y="-300.57" font-family="Times New Roman,serif" font-size="14.00">trade_suite.analysis.market_aggregator</text>
</g>
<!-- trade_suite.gui.signals -->
<g id="node14" class="node">
<title>trade_suite.gui.signals</title>
<polygon fill="none" stroke="black" points="593.5,-396 455.25,-396 455.25,-360 593.5,-360 593.5,-396"/>
<text text-anchor="middle" x="524.38" y="-372.57" font-family="Times New Roman,serif" font-size="14.00">trade_suite.gui.signals</text>
</g>
<!-- trade_suite.analysis.market_aggregator&#45;&gt;trade_suite.gui.signals -->
<g id="edge1" class="edge">
<title>trade_suite.analysis.market_aggregator&#45;&gt;trade_suite.gui.signals</title>
<path fill="none" stroke="black" d="M246.79,-324.48C307.41,-335.95 385.92,-350.81 443.96,-361.79"/>
<polygon fill="black" stroke="black" points="453.72,-363.63 443.06,-366.2 450.01,-362.93 443.9,-361.77 443.9,-361.77 443.9,-361.77 450.01,-362.93 444.73,-357.35 453.72,-363.63"/>
</g>
<!-- trade_suite.analysis.technical_analysis -->
<g id="node4" class="node">
<title>trade_suite.analysis.technical_analysis</title>
<polygon fill="none" stroke="black" points="632.12,-36 404.62,-36 404.62,0 632.12,0 632.12,-36"/>
<text text-anchor="middle" x="518.38" y="-12.57" font-family="Times New Roman,serif" font-size="14.00">trade_suite.analysis.technical_analysis</text>
</g>
<!-- trade_suite.config -->
<g id="node5" class="node">
<title>trade_suite.config</title>
<polygon fill="none" stroke="black" points="442.25,-324 326.5,-324 326.5,-288 442.25,-288 442.25,-324"/>
<text text-anchor="middle" x="384.38" y="-300.57" font-family="Times New Roman,serif" font-size="14.00">trade_suite.config</text>
</g>
<!-- trade_suite.gui -->
<g id="node6" class="node">
<title>trade_suite.gui</title>
<polygon fill="none" stroke="black" points="746.88,-36 649.88,-36 649.88,0 746.88,0 746.88,-36"/>
<text text-anchor="middle" x="698.38" y="-12.57" font-family="Times New Roman,serif" font-size="14.00">trade_suite.gui</text>
</g>
<!-- trade_suite.gui.components -->
<g id="node7" class="node">
<title>trade_suite.gui.components</title>
<polygon fill="none" stroke="black" points="934.25,-36 764.5,-36 764.5,0 934.25,0 934.25,-36"/>
<text text-anchor="middle" x="849.38" y="-12.57" font-family="Times New Roman,serif" font-size="14.00">trade_suite.gui.components</text>
</g>
<!-- trade_suite.gui.components.chart -->
<g id="node8" class="node">
<title>trade_suite.gui.components.chart</title>
<polygon fill="none" stroke="black" points="782,-180 580.75,-180 580.75,-144 782,-144 782,-180"/>
<text text-anchor="middle" x="681.38" y="-156.57" font-family="Times New Roman,serif" font-size="14.00">trade_suite.gui.components.chart</text>
</g>
<!-- trade_suite.gui.components.chart&#45;&gt;trade_suite.config -->
<g id="edge2" class="edge">
<title>trade_suite.gui.components.chart&#45;&gt;trade_suite.config</title>
<path fill="none" stroke="black" d="M580.36,-168.93C507.74,-175.45 418.4,-188.85 393.38,-216 378.57,-232.06 377.32,-257.32 379.19,-276.84"/>
<polygon fill="black" stroke="black" points="380.47,-286.63 374.71,-277.29 379.98,-282.88 379.17,-276.71 379.17,-276.71 379.17,-276.71 379.98,-282.88 383.64,-276.13 380.47,-286.63"/>
</g>
<!-- trade_suite.gui.components.indicators -->
<g id="node9" class="node">
<title>trade_suite.gui.components.indicators</title>
<polygon fill="none" stroke="black" points="837.5,-324 609.25,-324 609.25,-288 837.5,-288 837.5,-324"/>
<text text-anchor="middle" x="723.38" y="-300.57" font-family="Times New Roman,serif" font-size="14.00">trade_suite.gui.components.indicators</text>
</g>
<!-- trade_suite.gui.components.chart&#45;&gt;trade_suite.gui.components.indicators -->
<g id="edge3" class="edge">
<title>trade_suite.gui.components.chart&#45;&gt;trade_suite.gui.components.indicators</title>
<path fill="none" stroke="black" d="M686.53,-180.41C693.68,-204.6 706.7,-248.64 715.2,-277.35"/>
<polygon fill="black" stroke="black" points="717.97,-286.72 710.82,-278.41 716.9,-283.09 715.13,-277.13 715.13,-277.13 715.13,-277.13 716.9,-283.09 719.45,-275.86 717.97,-286.72"/>
</g>
<!-- trade_suite.gui.components.orderbook -->
<g id="node11" class="node">
<title>trade_suite.gui.components.orderbook</title>
<polygon fill="none" stroke="black" points="634.75,-252 402,-252 402,-216 634.75,-216 634.75,-252"/>
<text text-anchor="middle" x="518.38" y="-228.57" font-family="Times New Roman,serif" font-size="14.00">trade_suite.gui.components.orderbook</text>
</g>
<!-- trade_suite.gui.components.chart&#45;&gt;trade_suite.gui.components.orderbook -->
<g id="edge4" class="edge">
<title>trade_suite.gui.components.chart&#45;&gt;trade_suite.gui.components.orderbook</title>
<path fill="none" stroke="black" d="M640.66,-180.48C618.99,-189.79 592.14,-201.32 569.12,-211.21"/>
<polygon fill="black" stroke="black" points="559.97,-215.14 567.38,-207.06 563.44,-213.65 569.16,-211.19 569.16,-211.19 569.16,-211.19 563.44,-213.65 570.93,-215.33 559.97,-215.14"/>
</g>
<!-- trade_suite.gui.components.trading -->
<g id="node12" class="node">
<title>trade_suite.gui.components.trading</title>
<polygon fill="none" stroke="black" points="940.25,-252 728.5,-252 728.5,-216 940.25,-216 940.25,-252"/>
<text text-anchor="middle" x="834.38" y="-228.57" font-family="Times New Roman,serif" font-size="14.00">trade_suite.gui.components.trading</text>
</g>
<!-- trade_suite.gui.components.chart&#45;&gt;trade_suite.gui.components.trading -->
<g id="edge5" class="edge">
<title>trade_suite.gui.components.chart&#45;&gt;trade_suite.gui.components.trading</title>
<path fill="none" stroke="black" d="M719.59,-180.48C739.84,-189.75 764.91,-201.22 786.45,-211.07"/>
<polygon fill="black" stroke="black" points="795.28,-215.11 784.31,-215.04 791.84,-213.54 786.18,-210.95 786.18,-210.95 786.18,-210.95 791.84,-213.54 788.05,-206.86 795.28,-215.11"/>
</g>
<!-- trade_suite.gui.components.chart&#45;&gt;trade_suite.gui.signals -->
<g id="edge6" class="edge">
<title>trade_suite.gui.components.chart&#45;&gt;trade_suite.gui.signals</title>
<path fill="none" stroke="black" d="M678.09,-180.27C673.51,-200 663.4,-232.11 643.38,-252 613.97,-281.2 586.06,-258.1 557.38,-288 541.43,-304.62 533.06,-329.63 528.74,-348.9"/>
<polygon fill="black" stroke="black" points="526.83,-358.57 524.36,-347.88 527.57,-354.86 528.77,-348.76 528.77,-348.76 528.77,-348.76 527.57,-354.86 533.19,-349.63 526.83,-358.57"/>
</g>
<!-- trade_suite.gui.task_manager -->
<g id="node15" class="node">
<title>trade_suite.gui.task_manager</title>
<polygon fill="none" stroke="black" points="1071,-324 893.75,-324 893.75,-288 1071,-288 1071,-324"/>
<text text-anchor="middle" x="982.38" y="-300.57" font-family="Times New Roman,serif" font-size="14.00">trade_suite.gui.task_manager</text>
</g>
<!-- trade_suite.gui.components.chart&#45;&gt;trade_suite.gui.task_manager -->
<g id="edge7" class="edge">
<title>trade_suite.gui.components.chart&#45;&gt;trade_suite.gui.task_manager</title>
<path fill="none" stroke="black" d="M782.42,-172.7C847.43,-180.84 924.28,-194.63 949.38,-216 967.2,-231.18 975.41,-256.94 979.18,-276.84"/>
<polygon fill="black" stroke="black" points="980.73,-286.56 974.71,-277.4 980.14,-282.83 979.15,-276.69 979.15,-276.69 979.15,-276.69 980.14,-282.83 983.6,-275.98 980.73,-286.56"/>
</g>
<!-- trade_suite.gui.utils -->
<g id="node16" class="node">
<title>trade_suite.gui.utils</title>
<polygon fill="none" stroke="black" points="985,-396 861.75,-396 861.75,-360 985,-360 985,-396"/>
<text text-anchor="middle" x="923.38" y="-372.57" font-family="Times New Roman,serif" font-size="14.00">trade_suite.gui.utils</text>
</g>
<!-- trade_suite.gui.components.chart&#45;&gt;trade_suite.gui.utils -->
<g id="edge8" class="edge">
<title>trade_suite.gui.components.chart&#45;&gt;trade_suite.gui.utils</title>
<path fill="none" stroke="black" d="M782.27,-170.77C840.16,-177.78 913.24,-191.03 974.38,-216 1027.1,-237.54 1053.72,-237.67 1080.38,-288 1087.86,-302.14 1089.71,-311 1080.38,-324 1061.09,-350.86 1027.47,-364.29 996.28,-370.93"/>
<polygon fill="black" stroke="black" points="986.57,-372.77 995.55,-366.48 990.28,-372.07 996.39,-370.9 996.39,-370.9 996.39,-370.9 990.28,-372.07 997.23,-375.33 986.57,-372.77"/>
</g>
<!-- trade_suite.gui.components.indicators&#45;&gt;trade_suite.gui.signals -->
<g id="edge9" class="edge">
<title>trade_suite.gui.components.indicators&#45;&gt;trade_suite.gui.signals</title>
<path fill="none" stroke="black" d="M673.67,-324.48C646.5,-334.04 612.66,-345.95 584.06,-356"/>
<polygon fill="black" stroke="black" points="574.94,-359.21 582.88,-351.65 578.51,-357.96 584.37,-355.9 584.37,-355.9 584.37,-355.9 578.51,-357.96 585.86,-360.14 574.94,-359.21"/>
</g>
<!-- trade_suite.gui.components.indicators&#45;&gt;trade_suite.gui.utils -->
<g id="edge10" class="edge">
<title>trade_suite.gui.components.indicators&#45;&gt;trade_suite.gui.utils</title>
<path fill="none" stroke="black" d="M773.33,-324.48C800.63,-334.04 834.65,-345.95 863.39,-356"/>
<polygon fill="black" stroke="black" points="872.56,-359.22 861.64,-360.16 868.99,-357.97 863.12,-355.91 863.12,-355.91 863.12,-355.91 868.99,-357.97 864.61,-351.66 872.56,-359.22"/>
</g>
<!-- trade_suite.gui.components.notifications -->
<g id="node10" class="node">
<title>trade_suite.gui.components.notifications</title>
<polygon fill="none" stroke="black" points="1194.25,-36 952.5,-36 952.5,0 1194.25,0 1194.25,-36"/>
<text text-anchor="middle" x="1073.38" y="-12.57" font-family="Times New Roman,serif" font-size="14.00">trade_suite.gui.components.notifications</text>
</g>
<!-- trade_suite.gui.components.orderbook&#45;&gt;trade_suite.config -->
<g id="edge11" class="edge">
<title>trade_suite.gui.components.orderbook&#45;&gt;trade_suite.config</title>
<path fill="none" stroke="black" d="M484.91,-252.48C467.43,-261.61 445.85,-272.89 427.17,-282.65"/>
<polygon fill="black" stroke="black" points="418.5,-287.18 425.28,-278.56 421.85,-285.42 427.36,-282.55 427.36,-282.55 427.36,-282.55 421.85,-285.42 429.44,-286.53 418.5,-287.18"/>
</g>
<!-- trade_suite.gui.components.orderbook&#45;&gt;trade_suite.gui.signals -->
<g id="edge12" class="edge">
<title>trade_suite.gui.components.orderbook&#45;&gt;trade_suite.gui.signals</title>
<path fill="none" stroke="black" d="M519.11,-252.41C520.13,-276.5 521.98,-320.25 523.19,-348.97"/>
<polygon fill="black" stroke="black" points="523.6,-358.67 518.68,-348.87 523.44,-354.89 523.18,-348.68 523.18,-348.68 523.18,-348.68 523.44,-354.89 527.67,-348.49 523.6,-358.67"/>
</g>
<!-- trade_suite.gui.components.trading&#45;&gt;trade_suite.config -->
<g id="edge13" class="edge">
<title>trade_suite.gui.components.trading&#45;&gt;trade_suite.config</title>
<path fill="none" stroke="black" d="M728.02,-251.54C643.11,-264.75 526.63,-282.87 453.45,-294.26"/>
<polygon fill="black" stroke="black" points="443.73,-295.77 452.92,-289.78 447.47,-295.19 453.61,-294.23 453.61,-294.23 453.61,-294.23 447.47,-295.19 454.31,-298.68 443.73,-295.77"/>
</g>
<!-- trade_suite.gui.components.trading&#45;&gt;trade_suite.gui.signals -->
<g id="edge14" class="edge">
<title>trade_suite.gui.components.trading&#45;&gt;trade_suite.gui.signals</title>
<path fill="none" stroke="black" d="M728.2,-244.44C686.1,-251.79 638.7,-264.85 600.38,-288 574.97,-303.35 553.81,-330.16 540.32,-350.36"/>
<polygon fill="black" stroke="black" points="534.99,-358.64 536.62,-347.79 537.04,-355.46 540.41,-350.23 540.41,-350.23 540.41,-350.23 537.04,-355.46 544.19,-352.67 534.99,-358.64"/>
</g>
<!-- trade_suite.gui.components.trading&#45;&gt;trade_suite.gui.task_manager -->
<g id="edge15" class="edge">
<title>trade_suite.gui.components.trading&#45;&gt;trade_suite.gui.task_manager</title>
<path fill="none" stroke="black" d="M871.34,-252.48C890.84,-261.71 914.96,-273.11 935.73,-282.94"/>
<polygon fill="black" stroke="black" points="944.52,-287.1 933.56,-286.89 941.11,-285.48 935.48,-282.82 935.48,-282.82 935.48,-282.82 941.11,-285.48 937.41,-278.75 944.52,-287.1"/>
</g>
<!-- trade_suite.gui.components.trading&#45;&gt;trade_suite.gui.utils -->
<g id="edge16" class="edge">
<title>trade_suite.gui.components.trading&#45;&gt;trade_suite.gui.utils</title>
<path fill="none" stroke="black" d="M843.35,-252.43C852.92,-270.64 868.81,-299.88 884.38,-324 890.14,-332.93 896.86,-342.36 903.08,-350.76"/>
<polygon fill="black" stroke="black" points="909.09,-358.74 899.48,-353.46 906.82,-355.72 903.08,-350.75 903.08,-350.75 903.08,-350.75 906.82,-355.72 906.67,-348.04 909.09,-358.74"/>
</g>
<!-- trade_suite.gui.program -->
<g id="node13" class="node">
<title>trade_suite.gui.program</title>
<polygon fill="none" stroke="black" points="436.38,-108 288.38,-108 288.38,-72 436.38,-72 436.38,-108"/>
<text text-anchor="middle" x="362.38" y="-84.58" font-family="Times New Roman,serif" font-size="14.00">trade_suite.gui.program</text>
</g>
<!-- trade_suite.gui.program&#45;&gt;trade_suite.config -->
<g id="edge17" class="edge">
<title>trade_suite.gui.program&#45;&gt;trade_suite.config</title>
<path fill="none" stroke="black" d="M363.28,-108.44C364.93,-138.04 368.87,-199.97 375.38,-252 376.39,-260.09 377.76,-268.83 379.12,-276.83"/>
<polygon fill="black" stroke="black" points="380.86,-286.67 374.69,-277.61 380.2,-282.95 379.12,-276.82 379.12,-276.82 379.12,-276.82 380.2,-282.95 383.55,-276.04 380.86,-286.67"/>
</g>
<!-- trade_suite.gui.program&#45;&gt;trade_suite.gui.components.chart -->
<g id="edge18" class="edge">
<title>trade_suite.gui.program&#45;&gt;trade_suite.gui.components.chart</title>
<path fill="none" stroke="black" d="M436.76,-107.32C482.81,-117.43 542.23,-130.47 590.98,-141.16"/>
<polygon fill="black" stroke="black" points="600.65,-143.29 589.92,-145.54 596.96,-142.48 590.89,-141.14 590.89,-141.14 590.89,-141.14 596.96,-142.48 591.85,-136.75 600.65,-143.29"/>
</g>
<!-- trade_suite.gui.program&#45;&gt;trade_suite.gui.signals -->
<g id="edge19" class="edge">
<title>trade_suite.gui.program&#45;&gt;trade_suite.gui.signals</title>
<path fill="none" stroke="black" d="M350.79,-108.33C324.44,-150.13 266.09,-257.93 317.38,-324 333.2,-344.38 392.94,-358.26 444.21,-366.69"/>
<polygon fill="black" stroke="black" points="453.8,-368.21 443.21,-371.09 450.06,-367.62 443.92,-366.64 443.92,-366.64 443.92,-366.64 450.06,-367.62 444.63,-362.2 453.8,-368.21"/>
</g>
<!-- trade_suite.gui.program&#45;&gt;trade_suite.gui.task_manager -->
<g id="edge20" class="edge">
<title>trade_suite.gui.program&#45;&gt;trade_suite.gui.task_manager</title>
<path fill="none" stroke="black" d="M436.67,-94.5C523.05,-99.86 669.37,-112.99 791.38,-144 876.08,-165.53 921.98,-146.04 974.38,-216 987.24,-233.17 988.54,-257.77 987.01,-276.75"/>
<polygon fill="black" stroke="black" points="985.91,-286.52 982.56,-276.08 986.34,-282.76 987.03,-276.58 987.03,-276.58 987.03,-276.58 986.34,-282.76 991.5,-277.08 985.91,-286.52"/>
</g>
<!-- trade_suite.gui.task_manager&#45;&gt;trade_suite.gui.signals -->
<g id="edge21" class="edge">
<title>trade_suite.gui.task_manager&#45;&gt;trade_suite.gui.signals</title>
<path fill="none" stroke="black" d="M893.25,-320.62C809.45,-333.43 685.13,-352.43 604.42,-364.77"/>
<polygon fill="black" stroke="black" points="595.02,-366.2 604.23,-360.24 598.76,-365.63 604.91,-364.69 604.91,-364.69 604.91,-364.69 598.76,-365.63 605.59,-369.14 595.02,-366.2"/>
</g>
<!-- trade_suite.gui.task_manager&#45;&gt;trade_suite.gui.utils -->
<g id="edge22" class="edge">
<title>trade_suite.gui.task_manager&#45;&gt;trade_suite.gui.utils</title>
<path fill="none" stroke="black" d="M967.79,-324.3C960.86,-332.53 952.44,-342.52 944.8,-351.58"/>
<polygon fill="black" stroke="black" points="938.58,-358.96 941.58,-348.42 941.01,-356.07 945.02,-351.32 945.02,-351.32 945.02,-351.32 941.01,-356.07 948.46,-354.22 938.58,-358.96"/>
</g>
<!-- trade_suite.gui.viewport -->
<g id="node17" class="node">
<title>trade_suite.gui.viewport</title>
<polygon fill="none" stroke="black" points="386.12,-36 236.62,-36 236.62,0 386.12,0 386.12,-36"/>
<text text-anchor="middle" x="311.38" y="-12.57" font-family="Times New Roman,serif" font-size="14.00">trade_suite.gui.viewport</text>
</g>
<!-- trade_suite.gui.viewport&#45;&gt;trade_suite.config -->
<g id="edge23" class="edge">
<title>trade_suite.gui.viewport&#45;&gt;trade_suite.config</title>
<path fill="none" stroke="black" d="M297.81,-36.03C290.82,-45.91 283.01,-58.95 279.38,-72 275.08,-87.41 275.5,-92.48 279.38,-108 295.93,-174.27 339.46,-242.67 364.97,-278.85"/>
<polygon fill="black" stroke="black" points="370.64,-286.76 361.16,-281.25 368.44,-283.69 364.82,-278.63 364.82,-278.63 364.82,-278.63 368.44,-283.69 368.48,-276.01 370.64,-286.76"/>
</g>
<!-- trade_suite.gui.viewport&#45;&gt;trade_suite.gui.program -->
<g id="edge24" class="edge">
<title>trade_suite.gui.viewport&#45;&gt;trade_suite.gui.program</title>
<path fill="none" stroke="black" d="M323.98,-36.3C329.85,-44.36 336.95,-54.11 343.44,-63.02"/>
<polygon fill="black" stroke="black" points="349.2,-70.91 339.67,-65.48 346.97,-67.85 343.31,-62.83 343.31,-62.83 343.31,-62.83 346.97,-67.85 346.94,-60.18 349.2,-70.91"/>
</g>
<!-- trade_suite.gui.viewport&#45;&gt;trade_suite.gui.signals -->
<g id="edge25" class="edge">
<title>trade_suite.gui.viewport&#45;&gt;trade_suite.gui.signals</title>
<path fill="none" stroke="black" d="M243.82,-36.4C155.08,-61.28 10.38,-109.72 10.38,-161 10.38,-161 10.38,-161 10.38,-235 10.38,-275.45 -0.67,-296.92 29.38,-324 59.5,-351.16 311.62,-366.98 443.95,-373.5"/>
<polygon fill="black" stroke="black" points="453.61,-373.96 443.4,-377.97 449.83,-373.78 443.62,-373.48 443.62,-373.48 443.62,-373.48 449.83,-373.78 443.84,-368.99 453.61,-373.96"/>
</g>
<!-- trade_suite.gui.viewport&#45;&gt;trade_suite.gui.task_manager -->
<g id="edge26" class="edge">
<title>trade_suite.gui.viewport&#45;&gt;trade_suite.gui.task_manager</title>
<path fill="none" stroke="black" d="M386.59,-34.92C535.29,-66.48 854.54,-134.76 877.38,-144 933.97,-166.9 964.59,-162.7 994.38,-216 1004.82,-234.69 1000.61,-258.92 994.46,-277.39"/>
<polygon fill="black" stroke="black" points="991.03,-286.63 990.29,-275.69 992.34,-283.08 994.51,-277.25 994.51,-277.25 994.51,-277.25 992.34,-283.08 998.73,-278.82 991.03,-286.63"/>
</g>
</g>
</svg>
